<?xml version="1.0" encoding="UTF-8" standalone="no"?>
<!DOCTYPE svg PUBLIC "-//W3C//DTD SVG 1.1//EN"
 "http://www.w3.org/Graphics/SVG/1.1/DTD/svg11.dtd">
<!-- Generated by graphviz version 2.43.0 (0)
 -->
<!-- Title: dmzap_heap_delete Pages: 1 -->
<svg width="312pt" height="104pt"
 viewBox="0.00 0.00 312.00 104.00" xmlns="http://www.w3.org/2000/svg" xmlns:xlink="http://www.w3.org/1999/xlink">
<g id="graph0" class="graph" transform="scale(1 1) rotate(0) translate(4 100)">
<title>dmzap_heap_delete</title>
<!-- Node1 -->
<g id="node1" class="node">
<title>Node1</title>
<g id="a_node1"><a xlink:title=" ">
<polygon fill="#bfbfbf" stroke="black" points="0,-38.5 0,-57.5 115,-57.5 115,-38.5 0,-38.5"/>
<text text-anchor="middle" x="57.5" y="-45.5" font-family="Helvetica,sans-Serif" font-size="10.00">dmzap_heap_delete</text>
</a>
</g>
</g>
<!-- Node2 -->
<g id="node2" class="node">
<title>Node2</title>
<g id="a_node2"><a xlink:href="dm-zap-heap_8c.html#a41da22bd6d2f73822de3f5e21a2cf9d7" target="_top" xlink:title=" ">
<polygon fill="none" stroke="black" points="151,-76.5 151,-95.5 304,-95.5 304,-76.5 151,-76.5"/>
<text text-anchor="middle" x="227.5" y="-83.5" font-family="Helvetica,sans-Serif" font-size="10.00">dmzap_heap_decrease_size</text>
</a>
</g>
</g>
<!-- Node1&#45;&gt;Node2 -->
<g id="edge1" class="edge">
<title>Node1&#45;&gt;Node2</title>
<path fill="none" stroke="midnightblue" d="M100.89,-57.59C123.26,-62.65 150.9,-68.9 174.55,-74.25"/>
<polygon fill="midnightblue" stroke="midnightblue" points="173.89,-77.69 184.41,-76.48 175.43,-70.86 173.89,-77.69"/>
</g>
<!-- Node3 -->
<g id="node3" class="node">
<title>Node3</title>
<g id="a_node3"><a xlink:href="dm-zap-heap_8c.html#a119d1a49869fe299372ea1c0d38d42b2" target="_top" xlink:title=" ">
<polygon fill="none" stroke="black" points="177.5,-38.5 177.5,-57.5 277.5,-57.5 277.5,-38.5 177.5,-38.5"/>
<text text-anchor="middle" x="227.5" y="-45.5" font-family="Helvetica,sans-Serif" font-size="10.00">heap_filter_down</text>
</a>
</g>
</g>
<!-- Node1&#45;&gt;Node3 -->
<g id="edge2" class="edge">
<title>Node1&#45;&gt;Node3</title>
<path fill="none" stroke="midnightblue" d="M115.38,-48C132.01,-48 150.23,-48 167.02,-48"/>
<polygon fill="midnightblue" stroke="midnightblue" points="167.27,-51.5 177.26,-48 167.26,-44.5 167.27,-51.5"/>
</g>
<!-- Node4 -->
<g id="node4" class="node">
<title>Node4</title>
<g id="a_node4"><a xlink:href="dm-zap-heap_8c.html#a3b3766ed922ee8d7aeab183d362c7ada" target="_top" xlink:title=" ">
<polygon fill="none" stroke="black" points="184.5,-0.5 184.5,-19.5 270.5,-19.5 270.5,-0.5 184.5,-0.5"/>
<text text-anchor="middle" x="227.5" y="-7.5" font-family="Helvetica,sans-Serif" font-size="10.00">heap_filter_up</text>
</a>
</g>
</g>
<!-- Node1&#45;&gt;Node4 -->
<g id="edge3" class="edge">
<title>Node1&#45;&gt;Node4</title>
<path fill="none" stroke="midnightblue" d="M100.89,-38.41C123.26,-33.35 150.9,-27.1 174.55,-21.75"/>
<polygon fill="midnightblue" stroke="midnightblue" points="175.43,-25.14 184.41,-19.52 173.89,-18.31 175.43,-25.14"/>
</g>
</g>
</svg>
