<?xml version="1.0" encoding="UTF-8" standalone="no"?>
<!DOCTYPE svg PUBLIC "-//W3C//DTD SVG 1.1//EN"
 "http://www.w3.org/Graphics/SVG/1.1/DTD/svg11.dtd">
<!-- Generated by graphviz version 2.43.0 (0)
 -->
<!-- Title: dmzap_unassign_zone_from_class_0 Pages: 1 -->
<svg width="2569pt" height="262pt"
 viewBox="0.00 0.00 2569.00 261.50" xmlns="http://www.w3.org/2000/svg" xmlns:xlink="http://www.w3.org/1999/xlink">
<g id="graph0" class="graph" transform="scale(1 1) rotate(0) translate(4 257.5)">
<title>dmzap_unassign_zone_from_class_0</title>
<!-- Node1 -->
<g id="node1" class="node">
<title>Node1</title>
<g id="a_node1"><a xlink:title=" ">
<polygon fill="#bfbfbf" stroke="black" points="2434,-179 2434,-209 2561,-209 2561,-179 2434,-179"/>
<text text-anchor="start" x="2442" y="-197" font-family="Helvetica,sans-Serif" font-size="10.00">dmzap_unassign_zone</text>
<text text-anchor="middle" x="2497.5" y="-186" font-family="Helvetica,sans-Serif" font-size="10.00">_from_class_0</text>
</a>
</g>
</g>
<!-- Node2 -->
<g id="node2" class="node">
<title>Node2</title>
<g id="a_node2"><a xlink:href="dm-zap-reclaim_8c.html#ab7222d46e017866c44185898dd95506b" target="_top" xlink:title=" ">
<polygon fill="none" stroke="black" points="2252,-222.5 2252,-241.5 2398,-241.5 2398,-222.5 2252,-222.5"/>
<text text-anchor="middle" x="2325" y="-229.5" font-family="Helvetica,sans-Serif" font-size="10.00">dmzap_ajust_threshold_cb</text>
</a>
</g>
</g>
<!-- Node1&#45;&gt;Node2 -->
<g id="edge1" class="edge">
<title>Node1&#45;&gt;Node2</title>
<path fill="none" stroke="midnightblue" d="M2424.21,-210.11C2405.34,-214.32 2385.6,-218.72 2368.81,-222.46"/>
<polygon fill="midnightblue" stroke="midnightblue" points="2424.98,-213.53 2433.98,-207.93 2423.46,-206.69 2424.98,-213.53"/>
</g>
<!-- Node8 -->
<g id="node8" class="node">
<title>Node8</title>
<g id="a_node8"><a xlink:href="dm-zap-reclaim_8c.html#a3cf8ab902c6292cdb2dfe84d10ffd11d" target="_top" xlink:title=" ">
<polygon fill="none" stroke="black" points="2255,-95.5 2255,-114.5 2395,-114.5 2395,-95.5 2255,-95.5"/>
<text text-anchor="middle" x="2325" y="-102.5" font-family="Helvetica,sans-Serif" font-size="10.00">dmzap_invalidate_blocks</text>
</a>
</g>
</g>
<!-- Node1&#45;&gt;Node8 -->
<g id="edge7" class="edge">
<title>Node1&#45;&gt;Node8</title>
<path fill="none" stroke="midnightblue" d="M2458.49,-174.16C2423.05,-155.66 2371.71,-128.86 2344.52,-114.67"/>
<polygon fill="midnightblue" stroke="midnightblue" points="2457.09,-177.38 2467.58,-178.9 2460.33,-171.17 2457.09,-177.38"/>
</g>
<!-- Node26 -->
<g id="node26" class="node">
<title>Node26</title>
<g id="a_node26"><a xlink:href="dm-zap-reclaim_8c.html#aaf10b71af5d0de329040733b1858dc36" target="_top" xlink:title=" ">
<polygon fill="none" stroke="black" points="2271,-184.5 2271,-203.5 2379,-203.5 2379,-184.5 2271,-184.5"/>
<text text-anchor="middle" x="2325" y="-191.5" font-family="Helvetica,sans-Serif" font-size="10.00">dmzap_reset_zone</text>
</a>
</g>
</g>
<!-- Node1&#45;&gt;Node26 -->
<g id="edge32" class="edge">
<title>Node1&#45;&gt;Node26</title>
<path fill="none" stroke="midnightblue" d="M2423.75,-194C2408.81,-194 2393.35,-194 2379.26,-194"/>
<polygon fill="midnightblue" stroke="midnightblue" points="2423.98,-197.5 2433.98,-194 2423.98,-190.5 2423.98,-197.5"/>
</g>
<!-- Node3 -->
<g id="node3" class="node">
<title>Node3</title>
<g id="a_node3"><a xlink:href="dm-zap-reclaim_8c.html#ad3183f7d98458ab6e003454cdec4bed8" target="_top" xlink:title=" ">
<polygon fill="none" stroke="black" points="1938,-223 1938,-253 2064,-253 2064,-223 1938,-223"/>
<text text-anchor="start" x="1946" y="-241" font-family="Helvetica,sans-Serif" font-size="10.00">dmzap_fast_cb_victim</text>
<text text-anchor="middle" x="2001" y="-230" font-family="Helvetica,sans-Serif" font-size="10.00">_selection</text>
</a>
</g>
</g>
<!-- Node2&#45;&gt;Node3 -->
<g id="edge2" class="edge">
<title>Node2&#45;&gt;Node3</title>
<path fill="none" stroke="midnightblue" d="M2241.62,-233.54C2186.37,-234.56 2114.75,-235.9 2064.25,-236.84"/>
<polygon fill="midnightblue" stroke="midnightblue" points="2241.8,-237.03 2251.74,-233.35 2241.67,-230.03 2241.8,-237.03"/>
</g>
<!-- Node4 -->
<g id="node4" class="node">
<title>Node4</title>
<g id="a_node4"><a xlink:href="dm-zap-reclaim_8c.html#a3c52e6b4c5da86cbea57d48ee5c1d76d" target="_top" xlink:title=" ">
<polygon fill="none" stroke="black" points="407,-171.5 407,-190.5 516,-190.5 516,-171.5 407,-171.5"/>
<text text-anchor="middle" x="461.5" y="-178.5" font-family="Helvetica,sans-Serif" font-size="10.00">dmzap_do_reclaim</text>
</a>
</g>
</g>
<!-- Node3&#45;&gt;Node4 -->
<g id="edge3" class="edge">
<title>Node3&#45;&gt;Node4</title>
<path fill="none" stroke="midnightblue" d="M1927.57,-238C1866.71,-238 1777.42,-238 1699.5,-238 1699.5,-238 1699.5,-238 793.5,-238 685.34,-238 657.82,-230.37 552,-208 530.88,-203.54 507.55,-196.42 490,-190.62"/>
<polygon fill="midnightblue" stroke="midnightblue" points="1927.84,-241.5 1937.84,-238 1927.84,-234.5 1927.84,-241.5"/>
</g>
<!-- Node5 -->
<g id="node5" class="node">
<title>Node5</title>
<g id="a_node5"><a xlink:href="dm-zap-reclaim_8c.html#ac87f38c9e7971549f44e8aba65ddafcc" target="_top" xlink:title=" ">
<polygon fill="none" stroke="black" points="250,-152.5 250,-171.5 371,-171.5 371,-152.5 250,-152.5"/>
<text text-anchor="middle" x="310.5" y="-159.5" font-family="Helvetica,sans-Serif" font-size="10.00">dmzap_reclaim_work</text>
</a>
</g>
</g>
<!-- Node4&#45;&gt;Node5 -->
<g id="edge4" class="edge">
<title>Node4&#45;&gt;Node5</title>
<path fill="none" stroke="midnightblue" d="M396.79,-172.88C388.24,-171.79 379.49,-170.67 371.02,-169.59"/>
<polygon fill="midnightblue" stroke="midnightblue" points="396.35,-176.35 406.71,-174.14 397.23,-169.4 396.35,-176.35"/>
</g>
<!-- Node6 -->
<g id="node6" class="node">
<title>Node6</title>
<g id="a_node6"><a xlink:href="dm-zap-reclaim_8c.html#afac8044514d6358994c4d9eb2349ef54" target="_top" xlink:title=" ">
<polygon fill="none" stroke="black" points="104,-114.5 104,-133.5 214,-133.5 214,-114.5 104,-114.5"/>
<text text-anchor="middle" x="159" y="-121.5" font-family="Helvetica,sans-Serif" font-size="10.00">dmzap_ctr_reclaim</text>
</a>
</g>
</g>
<!-- Node5&#45;&gt;Node6 -->
<g id="edge5" class="edge">
<title>Node5&#45;&gt;Node6</title>
<path fill="none" stroke="midnightblue" d="M261.85,-149.89C241.03,-144.6 216.96,-138.48 197.45,-133.52"/>
<polygon fill="midnightblue" stroke="midnightblue" points="261.22,-153.34 271.77,-152.41 262.95,-146.56 261.22,-153.34"/>
</g>
<!-- Node7 -->
<g id="node7" class="node">
<title>Node7</title>
<g id="a_node7"><a xlink:href="dm-zap-target_8c.html#a533fd7adf57bc9829cbca54a8b3764ad" target="_top" xlink:title=" ">
<polygon fill="none" stroke="black" points="0,-76.5 0,-95.5 68,-95.5 68,-76.5 0,-76.5"/>
<text text-anchor="middle" x="34" y="-83.5" font-family="Helvetica,sans-Serif" font-size="10.00">dmzap_ctr</text>
</a>
</g>
</g>
<!-- Node6&#45;&gt;Node7 -->
<g id="edge6" class="edge">
<title>Node6&#45;&gt;Node7</title>
<path fill="none" stroke="midnightblue" d="M116.96,-111.32C100.34,-106.19 81.47,-100.36 66.03,-95.59"/>
<polygon fill="midnightblue" stroke="midnightblue" points="116.37,-114.8 126.96,-114.41 118.44,-108.12 116.37,-114.8"/>
</g>
<!-- Node9 -->
<g id="node9" class="node">
<title>Node9</title>
<g id="a_node9"><a xlink:href="dm-zap-map_8c.html#af559eb37c90d70f6ec1b3a821f3c05ea" target="_top" xlink:title=" ">
<polygon fill="none" stroke="black" points="2100,-95.5 2100,-114.5 2216,-114.5 2216,-95.5 2100,-95.5"/>
<text text-anchor="middle" x="2158" y="-102.5" font-family="Helvetica,sans-Serif" font-size="10.00">dmzap_map_update</text>
</a>
</g>
</g>
<!-- Node8&#45;&gt;Node9 -->
<g id="edge8" class="edge">
<title>Node8&#45;&gt;Node9</title>
<path fill="none" stroke="midnightblue" d="M2244.94,-105C2235.26,-105 2225.52,-105 2216.25,-105"/>
<polygon fill="midnightblue" stroke="midnightblue" points="2244.98,-108.5 2254.98,-105 2244.98,-101.5 2244.98,-108.5"/>
</g>
<!-- Node22 -->
<g id="node22" class="node">
<title>Node22</title>
<g id="a_node22"><a xlink:href="dm-zap-map_8c.html#ad7d74cba1614a30428862ed7daf711cf" target="_top" xlink:title=" ">
<polygon fill="none" stroke="black" points="722,-0.5 722,-19.5 867,-19.5 867,-0.5 722,-0.5"/>
<text text-anchor="middle" x="794.5" y="-7.5" font-family="Helvetica,sans-Serif" font-size="10.00">dmzap_map_update_if_eq</text>
</a>
</g>
</g>
<!-- Node8&#45;&gt;Node22 -->
<g id="edge31" class="edge">
<title>Node8&#45;&gt;Node22</title>
<path fill="none" stroke="midnightblue" d="M2290.88,-91.8C2233.18,-70.04 2110.05,-29 2002,-29 2002,-29 2002,-29 1089.5,-29 1013.42,-29 926.49,-22.59 867.01,-17.21"/>
<polygon fill="midnightblue" stroke="midnightblue" points="2289.63,-95.07 2300.22,-95.37 2292.13,-88.53 2289.63,-95.07"/>
</g>
<!-- Node10 -->
<g id="node10" class="node">
<title>Node10</title>
<g id="a_node10"><a xlink:href="dm-zap-conv-io_8c.html#a9835a3452c20220ed5562388c890a2e5" target="_top" xlink:title=" ">
<polygon fill="none" stroke="black" points="1946,-114.5 1946,-133.5 2056,-133.5 2056,-114.5 1946,-114.5"/>
<text text-anchor="middle" x="2001" y="-121.5" font-family="Helvetica,sans-Serif" font-size="10.00">dmzap_bio_end_wr</text>
</a>
</g>
</g>
<!-- Node9&#45;&gt;Node10 -->
<g id="edge9" class="edge">
<title>Node9&#45;&gt;Node10</title>
<path fill="none" stroke="midnightblue" d="M2089.59,-113.26C2078.43,-114.63 2066.99,-116.03 2056.21,-117.35"/>
<polygon fill="midnightblue" stroke="midnightblue" points="2090.22,-116.71 2099.72,-112.02 2089.37,-109.76 2090.22,-116.71"/>
</g>
<!-- Node11 -->
<g id="node11" class="node">
<title>Node11</title>
<g id="a_node11"><a xlink:href="dm-zap-conv-io_8c.html#aafacfd036ebfe4dd20e8daa81f2578ae" target="_top" xlink:title=" ">
<polygon fill="none" stroke="black" points="1789,-114.5 1789,-133.5 1902,-133.5 1902,-114.5 1789,-114.5"/>
<text text-anchor="middle" x="1845.5" y="-121.5" font-family="Helvetica,sans-Serif" font-size="10.00">dmzap_clone_endio</text>
</a>
</g>
</g>
<!-- Node10&#45;&gt;Node11 -->
<g id="edge10" class="edge">
<title>Node10&#45;&gt;Node11</title>
<path fill="none" stroke="midnightblue" d="M1935.77,-124C1924.62,-124 1913.11,-124 1902.21,-124"/>
<polygon fill="midnightblue" stroke="midnightblue" points="1935.88,-127.5 1945.88,-124 1935.88,-120.5 1935.88,-127.5"/>
</g>
<!-- Node12 -->
<g id="node12" class="node">
<title>Node12</title>
<g id="a_node12"><a xlink:href="dm-zap-conv-io_8c.html#a48bbd468ae04a1786fa70e9bac23fcb4" target="_top" xlink:title=" ">
<polygon fill="none" stroke="black" points="1644,-114.5 1644,-133.5 1753,-133.5 1753,-114.5 1644,-114.5"/>
<text text-anchor="middle" x="1698.5" y="-121.5" font-family="Helvetica,sans-Serif" font-size="10.00">dmzap_submit_bio</text>
</a>
</g>
</g>
<!-- Node11&#45;&gt;Node12 -->
<g id="edge11" class="edge">
<title>Node11&#45;&gt;Node12</title>
<path fill="none" stroke="midnightblue" d="M1778.62,-124C1770.15,-124 1761.57,-124 1753.33,-124"/>
<polygon fill="midnightblue" stroke="midnightblue" points="1778.85,-127.5 1788.85,-124 1778.85,-120.5 1778.85,-127.5"/>
</g>
<!-- Node13 -->
<g id="node13" class="node">
<title>Node13</title>
<g id="a_node13"><a xlink:href="dm-zap-conv-io_8c.html#a7925b771905b762d867cc036018d80e6" target="_top" xlink:title=" ">
<polygon fill="none" stroke="black" points="1501.5,-152.5 1501.5,-171.5 1606.5,-171.5 1606.5,-152.5 1501.5,-152.5"/>
<text text-anchor="middle" x="1554" y="-159.5" font-family="Helvetica,sans-Serif" font-size="10.00">dmzap_conv_read</text>
</a>
</g>
</g>
<!-- Node12&#45;&gt;Node13 -->
<g id="edge12" class="edge">
<title>Node12&#45;&gt;Node13</title>
<path fill="none" stroke="midnightblue" d="M1651.85,-136.17C1632.14,-141.43 1609.43,-147.49 1590.95,-152.41"/>
<polygon fill="midnightblue" stroke="midnightblue" points="1652.78,-139.55 1661.54,-133.59 1650.98,-132.78 1652.78,-139.55"/>
</g>
<!-- Node25 -->
<g id="node25" class="node">
<title>Node25</title>
<g id="a_node25"><a xlink:href="dm-zap-conv-io_8c.html#ad1f33cfd745c84f6c4b5d921a48b88ba" target="_top" xlink:title=" ">
<polygon fill="none" stroke="black" points="1500,-114.5 1500,-133.5 1608,-133.5 1608,-114.5 1500,-114.5"/>
<text text-anchor="middle" x="1554" y="-121.5" font-family="Helvetica,sans-Serif" font-size="10.00">dmzap_conv_write</text>
</a>
</g>
</g>
<!-- Node12&#45;&gt;Node25 -->
<g id="edge29" class="edge">
<title>Node12&#45;&gt;Node25</title>
<path fill="none" stroke="midnightblue" d="M1633.38,-124C1624.89,-124 1616.27,-124 1608,-124"/>
<polygon fill="midnightblue" stroke="midnightblue" points="1633.63,-127.5 1643.63,-124 1633.63,-120.5 1633.63,-127.5"/>
</g>
<!-- Node14 -->
<g id="node14" class="node">
<title>Node14</title>
<g id="a_node14"><a xlink:href="dm-zap-target_8c.html#ac361600a0ef24d3abe058b76ee4a7c43" target="_top" xlink:title=" ">
<polygon fill="none" stroke="black" points="1356,-114.5 1356,-133.5 1464,-133.5 1464,-114.5 1356,-114.5"/>
<text text-anchor="middle" x="1410" y="-121.5" font-family="Helvetica,sans-Serif" font-size="10.00">dmzap_handle_bio</text>
</a>
</g>
</g>
<!-- Node13&#45;&gt;Node14 -->
<g id="edge13" class="edge">
<title>Node13&#45;&gt;Node14</title>
<path fill="none" stroke="midnightblue" d="M1507.51,-149.83C1487.87,-144.57 1465.23,-138.51 1446.82,-133.59"/>
<polygon fill="midnightblue" stroke="midnightblue" points="1506.6,-153.21 1517.17,-152.41 1508.41,-146.44 1506.6,-153.21"/>
</g>
<!-- Node15 -->
<g id="node15" class="node">
<title>Node15</title>
<g id="a_node15"><a xlink:href="dm-zap-target_8c.html#a8b7bb265a5ab0376e0b178ec8ca02fc2" target="_top" xlink:title=" ">
<polygon fill="none" stroke="black" points="1201,-114.5 1201,-133.5 1320,-133.5 1320,-114.5 1201,-114.5"/>
<text text-anchor="middle" x="1260.5" y="-121.5" font-family="Helvetica,sans-Serif" font-size="10.00">dmzap_chunk_work_</text>
</a>
</g>
</g>
<!-- Node14&#45;&gt;Node15 -->
<g id="edge14" class="edge">
<title>Node14&#45;&gt;Node15</title>
<path fill="none" stroke="midnightblue" d="M1345.58,-124C1337.14,-124 1328.52,-124 1320.17,-124"/>
<polygon fill="midnightblue" stroke="midnightblue" points="1345.75,-127.5 1355.75,-124 1345.75,-120.5 1345.75,-127.5"/>
</g>
<!-- Node16 -->
<g id="node16" class="node">
<title>Node16</title>
<g id="a_node16"><a xlink:href="dm-zap-target_8c.html#a91bb5f12809f481c64891e1a3d43c22e" target="_top" xlink:title=" ">
<polygon fill="none" stroke="black" points="1016,-114.5 1016,-133.5 1165,-133.5 1165,-114.5 1016,-114.5"/>
<text text-anchor="middle" x="1090.5" y="-121.5" font-family="Helvetica,sans-Serif" font-size="10.00">dmzap_queue_chunk_work</text>
</a>
</g>
</g>
<!-- Node15&#45;&gt;Node16 -->
<g id="edge15" class="edge">
<title>Node15&#45;&gt;Node16</title>
<path fill="none" stroke="midnightblue" d="M1190.66,-124C1182.3,-124 1173.72,-124 1165.29,-124"/>
<polygon fill="midnightblue" stroke="midnightblue" points="1190.74,-127.5 1200.74,-124 1190.74,-120.5 1190.74,-127.5"/>
</g>
<!-- Node17 -->
<g id="node17" class="node">
<title>Node17</title>
<g id="a_node17"><a xlink:href="dm-zap-target_8c.html#a43a56808aed8f10e2c0b5c040e478b41" target="_top" xlink:title=" ">
<polygon fill="none" stroke="black" points="903,-76.5 903,-95.5 980,-95.5 980,-76.5 903,-76.5"/>
<text text-anchor="middle" x="941.5" y="-83.5" font-family="Helvetica,sans-Serif" font-size="10.00">dmzap_map</text>
</a>
</g>
</g>
<!-- Node16&#45;&gt;Node17 -->
<g id="edge16" class="edge">
<title>Node16&#45;&gt;Node17</title>
<path fill="none" stroke="midnightblue" d="M1042.65,-111.89C1022.17,-106.6 998.51,-100.48 979.33,-95.52"/>
<polygon fill="midnightblue" stroke="midnightblue" points="1041.85,-115.3 1052.41,-114.41 1043.6,-108.52 1041.85,-115.3"/>
</g>
<!-- Node17&#45;&gt;Node9 -->
<g id="edge24" class="edge">
<title>Node17&#45;&gt;Node9</title>
<path fill="none" stroke="midnightblue" d="M990.33,-86C1052.4,-86 1164.03,-86 1259.5,-86 1846.5,-86 1846.5,-86 1846.5,-86 1935.07,-86 2037.59,-93.8 2099.84,-99.4"/>
<polygon fill="midnightblue" stroke="midnightblue" points="990.07,-82.5 980.07,-86 990.07,-89.5 990.07,-82.5"/>
</g>
<!-- Node18 -->
<g id="node18" class="node">
<title>Node18</title>
<g id="a_node18"><a xlink:href="dm-zap-map_8c.html#aca7da0a670cd2de834b497d17ba9b4b3" target="_top" xlink:title=" ">
<polygon fill="none" stroke="black" points="744,-38.5 744,-57.5 845,-57.5 845,-38.5 744,-38.5"/>
<text text-anchor="middle" x="794.5" y="-45.5" font-family="Helvetica,sans-Serif" font-size="10.00">dmzap_map_free</text>
</a>
</g>
</g>
<!-- Node17&#45;&gt;Node18 -->
<g id="edge17" class="edge">
<title>Node17&#45;&gt;Node18</title>
<path fill="none" stroke="midnightblue" d="M894.01,-73.82C873.88,-68.54 850.66,-62.46 831.83,-57.52"/>
<polygon fill="midnightblue" stroke="midnightblue" points="893.35,-77.26 903.91,-76.41 895.12,-70.49 893.35,-77.26"/>
</g>
<!-- Node20 -->
<g id="node20" class="node">
<title>Node20</title>
<g id="a_node20"><a xlink:href="dm-zap-map_8c.html#ab288b8683e2e74ab56ddf2994ce3c9b4" target="_top" xlink:title=" ">
<polygon fill="none" stroke="black" points="412.5,-76.5 412.5,-95.5 510.5,-95.5 510.5,-76.5 412.5,-76.5"/>
<text text-anchor="middle" x="461.5" y="-83.5" font-family="Helvetica,sans-Serif" font-size="10.00">dmzap_map_init</text>
</a>
</g>
</g>
<!-- Node17&#45;&gt;Node20 -->
<g id="edge20" class="edge">
<title>Node17&#45;&gt;Node20</title>
<path fill="none" stroke="midnightblue" d="M892.92,-86C801.54,-86 602.43,-86 510.62,-86"/>
<polygon fill="midnightblue" stroke="midnightblue" points="892.99,-89.5 902.99,-86 892.99,-82.5 892.99,-89.5"/>
</g>
<!-- Node21 -->
<g id="node21" class="node">
<title>Node21</title>
<g id="a_node21"><a xlink:href="dm-zap-map_8c.html#a96fe7def7b6b64c1de080f5b6120bbc7" target="_top" xlink:title=" ">
<polygon fill="none" stroke="black" points="737.5,-152.5 737.5,-171.5 851.5,-171.5 851.5,-152.5 737.5,-152.5"/>
<text text-anchor="middle" x="794.5" y="-159.5" font-family="Helvetica,sans-Serif" font-size="10.00">dmzap_map_lookup</text>
</a>
</g>
</g>
<!-- Node17&#45;&gt;Node21 -->
<g id="edge22" class="edge">
<title>Node17&#45;&gt;Node21</title>
<path fill="none" stroke="midnightblue" d="M923.48,-102.44C909.39,-115.21 888.29,-132.46 867,-143 859.29,-146.82 850.71,-149.94 842.26,-152.47"/>
<polygon fill="midnightblue" stroke="midnightblue" points="925.97,-104.9 930.91,-95.53 921.21,-99.77 925.97,-104.9"/>
</g>
<!-- Node17&#45;&gt;Node22 -->
<g id="edge25" class="edge">
<title>Node17&#45;&gt;Node22</title>
<path fill="none" stroke="midnightblue" d="M923.48,-69.56C909.39,-56.79 888.29,-39.54 867,-29 859.29,-25.18 850.71,-22.06 842.26,-19.53"/>
<polygon fill="midnightblue" stroke="midnightblue" points="921.21,-72.23 930.91,-76.47 925.97,-67.1 921.21,-72.23"/>
</g>
<!-- Node23 -->
<g id="node23" class="node">
<title>Node23</title>
<g id="a_node23"><a xlink:href="dm-zap-map_8c.html#a8b33c484fe62fd84b76c014877ef9f68" target="_top" xlink:title=" ">
<polygon fill="none" stroke="black" points="737,-114.5 737,-133.5 852,-133.5 852,-114.5 737,-114.5"/>
<text text-anchor="middle" x="794.5" y="-121.5" font-family="Helvetica,sans-Serif" font-size="10.00">dmzap_remap_copy</text>
</a>
</g>
</g>
<!-- Node17&#45;&gt;Node23 -->
<g id="edge26" class="edge">
<title>Node17&#45;&gt;Node23</title>
<path fill="none" stroke="midnightblue" d="M894.01,-98.18C873.88,-103.46 850.66,-109.54 831.83,-114.48"/>
<polygon fill="midnightblue" stroke="midnightblue" points="895.12,-101.51 903.91,-95.59 893.35,-94.74 895.12,-101.51"/>
</g>
<!-- Node18&#45;&gt;Node7 -->
<g id="edge18" class="edge">
<title>Node18&#45;&gt;Node7</title>
<path fill="none" stroke="midnightblue" d="M733.62,-48C667.32,-48 557.28,-48 462.5,-48 462.5,-48 462.5,-48 309.5,-48 221.7,-48 119.58,-67.31 68.18,-78.4"/>
<polygon fill="midnightblue" stroke="midnightblue" points="733.87,-51.5 743.87,-48 733.87,-44.5 733.87,-51.5"/>
</g>
<!-- Node19 -->
<g id="node19" class="node">
<title>Node19</title>
<g id="a_node19"><a xlink:href="dm-zap-target_8c.html#ad1b8e145255104198efd72bdbbadee99" target="_top" xlink:title=" ">
<polygon fill="none" stroke="black" points="585,-0.5 585,-19.5 653,-19.5 653,-0.5 585,-0.5"/>
<text text-anchor="middle" x="619" y="-7.5" font-family="Helvetica,sans-Serif" font-size="10.00">dmzap_dtr</text>
</a>
</g>
</g>
<!-- Node18&#45;&gt;Node19 -->
<g id="edge19" class="edge">
<title>Node18&#45;&gt;Node19</title>
<path fill="none" stroke="midnightblue" d="M739.94,-36.27C711.57,-30.05 677.61,-22.62 653.09,-17.25"/>
<polygon fill="midnightblue" stroke="midnightblue" points="739.2,-39.69 749.72,-38.41 740.7,-32.85 739.2,-39.69"/>
</g>
<!-- Node20&#45;&gt;Node7 -->
<g id="edge21" class="edge">
<title>Node20&#45;&gt;Node7</title>
<path fill="none" stroke="midnightblue" d="M402,-86C311.41,-86 140.14,-86 68.17,-86"/>
<polygon fill="midnightblue" stroke="midnightblue" points="402.1,-89.5 412.1,-86 402.1,-82.5 402.1,-89.5"/>
</g>
<!-- Node21&#45;&gt;Node13 -->
<g id="edge23" class="edge">
<title>Node21&#45;&gt;Node13</title>
<path fill="none" stroke="midnightblue" d="M861.62,-162C921.2,-162 1011.21,-162 1089.5,-162 1261.5,-162 1261.5,-162 1261.5,-162 1345.51,-162 1443.14,-162 1501.4,-162"/>
<polygon fill="midnightblue" stroke="midnightblue" points="861.59,-158.5 851.59,-162 861.59,-165.5 861.59,-158.5"/>
</g>
<!-- Node24 -->
<g id="node24" class="node">
<title>Node24</title>
<g id="a_node24"><a xlink:href="dm-zap-reclaim_8c.html#a45a89da3760fd49a52da0e61ae86b315" target="_top" xlink:title=" ">
<polygon fill="none" stroke="black" points="552,-133.5 552,-152.5 686,-152.5 686,-133.5 552,-133.5"/>
<text text-anchor="middle" x="619" y="-140.5" font-family="Helvetica,sans-Serif" font-size="10.00">dmzap_copy_valid_data</text>
</a>
</g>
</g>
<!-- Node23&#45;&gt;Node24 -->
<g id="edge27" class="edge">
<title>Node23&#45;&gt;Node24</title>
<path fill="none" stroke="midnightblue" d="M726.7,-131.32C713.44,-132.77 699.53,-134.29 686.29,-135.74"/>
<polygon fill="midnightblue" stroke="midnightblue" points="727.13,-134.79 736.69,-130.22 726.37,-127.83 727.13,-134.79"/>
</g>
<!-- Node24&#45;&gt;Node4 -->
<g id="edge28" class="edge">
<title>Node24&#45;&gt;Node4</title>
<path fill="none" stroke="midnightblue" d="M569.03,-154.97C547.23,-160.29 521.93,-166.48 501.46,-171.48"/>
<polygon fill="midnightblue" stroke="midnightblue" points="569.88,-158.36 578.76,-152.59 568.22,-151.56 569.88,-158.36"/>
</g>
<!-- Node25&#45;&gt;Node14 -->
<g id="edge30" class="edge">
<title>Node25&#45;&gt;Node14</title>
<path fill="none" stroke="midnightblue" d="M1489.48,-124C1481,-124 1472.38,-124 1464.11,-124"/>
<polygon fill="midnightblue" stroke="midnightblue" points="1489.72,-127.5 1499.72,-124 1489.72,-120.5 1489.72,-127.5"/>
</g>
<!-- Node27 -->
<g id="node27" class="node">
<title>Node27</title>
<g id="a_node27"><a xlink:href="dm-zap-reclaim_8c.html#a5a5aca54eb9f6809d3f64ff950f01e4c" target="_top" xlink:title=" ">
<polygon fill="none" stroke="black" points="1790.5,-187.5 1790.5,-206.5 1900.5,-206.5 1900.5,-187.5 1790.5,-187.5"/>
<text text-anchor="middle" x="1845.5" y="-194.5" font-family="Helvetica,sans-Serif" font-size="10.00">dmzap_free_victim</text>
</a>
</g>
</g>
<!-- Node26&#45;&gt;Node27 -->
<g id="edge33" class="edge">
<title>Node26&#45;&gt;Node27</title>
<path fill="none" stroke="midnightblue" d="M2260.61,-194.4C2166.01,-194.99 1989.54,-196.1 1900.64,-196.66"/>
<polygon fill="midnightblue" stroke="midnightblue" points="2260.64,-197.9 2270.61,-194.34 2260.59,-190.9 2260.64,-197.9"/>
</g>
<!-- Node27&#45;&gt;Node4 -->
<g id="edge34" class="edge">
<title>Node27&#45;&gt;Node4</title>
<path fill="none" stroke="midnightblue" d="M1780.12,-198.05C1721.45,-198.91 1632.41,-200 1555,-200 1555,-200 1555,-200 793.5,-200 695.5,-200 581.46,-191.6 516.05,-185.97"/>
<polygon fill="midnightblue" stroke="midnightblue" points="1780.4,-201.55 1790.35,-197.9 1780.29,-194.55 1780.4,-201.55"/>
</g>
</g>
</svg>
