<?xml version="1.0" encoding="UTF-8" standalone="no"?>
<!DOCTYPE svg PUBLIC "-//W3C//DTD SVG 1.1//EN"
 "http://www.w3.org/Graphics/SVG/1.1/DTD/svg11.dtd">
<!-- Generated by graphviz version 2.43.0 (0)
 -->
<!-- Title: dmzap_bio_end_wr Pages: 1 -->
<svg width="1615pt" height="776pt"
 viewBox="0.00 0.00 1615.00 776.00" xmlns="http://www.w3.org/2000/svg" xmlns:xlink="http://www.w3.org/1999/xlink">
<g id="graph0" class="graph" transform="scale(1 1) rotate(0) translate(4 772)">
<title>dmzap_bio_end_wr</title>
<!-- Node1 -->
<g id="node1" class="node">
<title>Node1</title>
<g id="a_node1"><a xlink:title=" ">
<polygon fill="#bfbfbf" stroke="black" points="0,-256.5 0,-275.5 110,-275.5 110,-256.5 0,-256.5"/>
<text text-anchor="middle" x="55" y="-263.5" font-family="Helvetica,sans-Serif" font-size="10.00">dmzap_bio_end_wr</text>
</a>
</g>
</g>
<!-- Node2 -->
<g id="node2" class="node">
<title>Node2</title>
<g id="a_node2"><a xlink:href="dm-zap-target_8c.html#aaa786e62327b400a3298ebecfef66a50" target="_top" xlink:title=" ">
<polygon fill="none" stroke="black" points="1199,-739.5 1199,-758.5 1312,-758.5 1312,-739.5 1199,-739.5"/>
<text text-anchor="middle" x="1255.5" y="-746.5" font-family="Helvetica,sans-Serif" font-size="10.00">dmzap_get_seq_wp</text>
</a>
</g>
</g>
<!-- Node1&#45;&gt;Node2 -->
<g id="edge1" class="edge">
<title>Node1&#45;&gt;Node2</title>
<path fill="none" stroke="midnightblue" d="M57.29,-275.58C67.23,-344.98 137.79,-768 382,-768 382,-768 382,-768 913,-768 1009.02,-768 1119.98,-760.42 1188.71,-754.84"/>
<polygon fill="midnightblue" stroke="midnightblue" points="1189.27,-758.3 1198.95,-753.99 1188.7,-751.32 1189.27,-758.3"/>
</g>
<!-- Node3 -->
<g id="node3" class="node">
<title>Node3</title>
<g id="a_node3"><a xlink:href="dm-zap-map_8c.html#af559eb37c90d70f6ec1b3a821f3c05ea" target="_top" xlink:title=" ">
<polygon fill="none" stroke="black" points="153.5,-317.5 153.5,-336.5 269.5,-336.5 269.5,-317.5 153.5,-317.5"/>
<text text-anchor="middle" x="211.5" y="-324.5" font-family="Helvetica,sans-Serif" font-size="10.00">dmzap_map_update</text>
</a>
</g>
</g>
<!-- Node1&#45;&gt;Node3 -->
<g id="edge2" class="edge">
<title>Node1&#45;&gt;Node3</title>
<path fill="none" stroke="midnightblue" d="M80.14,-275.53C106.14,-285.8 147.7,-302.21 176.89,-313.73"/>
<polygon fill="midnightblue" stroke="midnightblue" points="175.69,-317.02 186.27,-317.44 178.26,-310.51 175.69,-317.02"/>
</g>
<!-- Node35 -->
<g id="node35" class="node">
<title>Node35</title>
<g id="a_node35"><a xlink:href="dm-zap-conv-io_8c.html#ade4ebe17a36bd3a458a6acfbebe61b26" target="_top" xlink:title=" ">
<polygon fill="none" stroke="black" points="146,-150.5 146,-169.5 277,-169.5 277,-150.5 146,-150.5"/>
<text text-anchor="middle" x="211.5" y="-157.5" font-family="Helvetica,sans-Serif" font-size="10.00">dmzap_update_seq_wp</text>
</a>
</g>
</g>
<!-- Node1&#45;&gt;Node35 -->
<g id="edge43" class="edge">
<title>Node1&#45;&gt;Node35</title>
<path fill="none" stroke="midnightblue" d="M69.98,-256.41C96.73,-238.05 155.38,-197.82 187.81,-175.57"/>
<polygon fill="midnightblue" stroke="midnightblue" points="189.95,-178.35 196.21,-169.8 185.99,-172.57 189.95,-178.35"/>
</g>
<!-- Node4 -->
<g id="node4" class="node">
<title>Node4</title>
<g id="a_node4"><a xlink:href="dm-zap-reclaim_8c.html#a3cf8ab902c6292cdb2dfe84d10ffd11d" target="_top" xlink:title=" ">
<polygon fill="none" stroke="black" points="313,-317.5 313,-336.5 453,-336.5 453,-317.5 313,-317.5"/>
<text text-anchor="middle" x="383" y="-324.5" font-family="Helvetica,sans-Serif" font-size="10.00">dmzap_invalidate_blocks</text>
</a>
</g>
</g>
<!-- Node3&#45;&gt;Node4 -->
<g id="edge3" class="edge">
<title>Node3&#45;&gt;Node4</title>
<path fill="none" stroke="midnightblue" d="M269.88,-327C280.47,-327 291.7,-327 302.8,-327"/>
<polygon fill="midnightblue" stroke="midnightblue" points="302.94,-330.5 312.94,-327 302.94,-323.5 302.94,-330.5"/>
</g>
<!-- Node15 -->
<g id="node15" class="node">
<title>Node15</title>
<g id="a_node15"><a xlink:href="dm-zap-target_8c.html#a43a56808aed8f10e2c0b5c040e478b41" target="_top" xlink:title=" ">
<polygon fill="none" stroke="black" points="344.5,-530.5 344.5,-549.5 421.5,-549.5 421.5,-530.5 344.5,-530.5"/>
<text text-anchor="middle" x="383" y="-537.5" font-family="Helvetica,sans-Serif" font-size="10.00">dmzap_map</text>
</a>
</g>
</g>
<!-- Node3&#45;&gt;Node15 -->
<g id="edge16" class="edge">
<title>Node3&#45;&gt;Node15</title>
<path fill="none" stroke="midnightblue" d="M220.22,-336.71C246.64,-369.9 333.64,-479.23 367.93,-522.32"/>
<polygon fill="midnightblue" stroke="midnightblue" points="365.27,-524.59 374.23,-530.24 370.74,-520.23 365.27,-524.59"/>
</g>
<!-- Node5 -->
<g id="node5" class="node">
<title>Node5</title>
<g id="a_node5"><a xlink:href="dm-zap-reclaim_8c.html#a853ccadd2f559cc40b206dc91029a833" target="_top" xlink:title=" ">
<polygon fill="none" stroke="black" points="501.5,-317.5 501.5,-336.5 626.5,-336.5 626.5,-317.5 501.5,-317.5"/>
<text text-anchor="middle" x="564" y="-324.5" font-family="Helvetica,sans-Serif" font-size="10.00">dmzap_block2zone_id</text>
</a>
</g>
</g>
<!-- Node4&#45;&gt;Node5 -->
<g id="edge4" class="edge">
<title>Node4&#45;&gt;Node5</title>
<path fill="none" stroke="midnightblue" d="M453.21,-327C465.58,-327 478.5,-327 490.95,-327"/>
<polygon fill="midnightblue" stroke="midnightblue" points="491.28,-330.5 501.28,-327 491.28,-323.5 491.28,-330.5"/>
</g>
<!-- Node6 -->
<g id="node6" class="node">
<title>Node6</title>
<g id="a_node6"><a xlink:href="dm-zap-reclaim_8c.html#ada1e1efbb5a5501000a7a1aad639107d" target="_top" xlink:title=" ">
<polygon fill="none" stroke="black" points="502.5,-279.5 502.5,-298.5 625.5,-298.5 625.5,-279.5 502.5,-279.5"/>
<text text-anchor="middle" x="564" y="-286.5" font-family="Helvetica,sans-Serif" font-size="10.00">dmzap_calc_cb_value</text>
</a>
</g>
</g>
<!-- Node4&#45;&gt;Node6 -->
<g id="edge5" class="edge">
<title>Node4&#45;&gt;Node6</title>
<path fill="none" stroke="midnightblue" d="M429.17,-317.41C453.22,-312.31 482.97,-305.99 508.32,-300.61"/>
<polygon fill="midnightblue" stroke="midnightblue" points="509.1,-304.02 518.16,-298.52 507.65,-297.17 509.1,-304.02"/>
</g>
<!-- Node7 -->
<g id="node7" class="node">
<title>Node7</title>
<g id="a_node7"><a xlink:href="dm-zap-reclaim_8c.html#a5d6e74d33d26b2dc1f932e7a025111ea" target="_top" xlink:title=" ">
<polygon fill="none" stroke="black" points="500,-241.5 500,-260.5 628,-260.5 628,-241.5 500,-241.5"/>
<text text-anchor="middle" x="564" y="-248.5" font-family="Helvetica,sans-Serif" font-size="10.00">dmzap_calc_shift_time</text>
</a>
</g>
</g>
<!-- Node4&#45;&gt;Node7 -->
<g id="edge6" class="edge">
<title>Node4&#45;&gt;Node7</title>
<path fill="none" stroke="midnightblue" d="M398.74,-317.48C418.55,-305.04 455.22,-283.27 489,-270 495.3,-267.52 502.04,-265.28 508.78,-263.27"/>
<polygon fill="midnightblue" stroke="midnightblue" points="509.93,-266.58 518.61,-260.5 508.03,-259.85 509.93,-266.58"/>
</g>
<!-- Node8 -->
<g id="node8" class="node">
<title>Node8</title>
<g id="a_node8"><a xlink:href="dm-zap-heap_8c.html#a33fc775872ac42f1097fb2a531580d6c" target="_top" xlink:title=" ">
<polygon fill="none" stroke="black" points="505,-454.5 505,-473.5 623,-473.5 623,-454.5 505,-454.5"/>
<text text-anchor="middle" x="564" y="-461.5" font-family="Helvetica,sans-Serif" font-size="10.00">dmzap_heap_update</text>
</a>
</g>
</g>
<!-- Node4&#45;&gt;Node8 -->
<g id="edge7" class="edge">
<title>Node4&#45;&gt;Node8</title>
<path fill="none" stroke="midnightblue" d="M389.73,-336.69C403.67,-359.37 441.7,-416.17 489,-445 492.57,-447.17 496.38,-449.1 500.32,-450.81"/>
<polygon fill="midnightblue" stroke="midnightblue" points="499.1,-454.09 509.69,-454.41 501.61,-447.56 499.1,-454.09"/>
</g>
<!-- Node12 -->
<g id="node12" class="node">
<title>Node12</title>
<g id="a_node12"><a xlink:href="dm-zap-reclaim_8c.html#a3731f00c9748741be7af5006fe21b559" target="_top" xlink:title=" ">
<polygon fill="none" stroke="black" points="501,-192 501,-222 627,-222 627,-192 501,-192"/>
<text text-anchor="start" x="509" y="-210" font-family="Helvetica,sans-Serif" font-size="10.00">dmzap_rb_insert_zone</text>
<text text-anchor="middle" x="564" y="-199" font-family="Helvetica,sans-Serif" font-size="10.00">_class_1</text>
</a>
</g>
</g>
<!-- Node4&#45;&gt;Node12 -->
<g id="edge13" class="edge">
<title>Node4&#45;&gt;Node12</title>
<path fill="none" stroke="midnightblue" d="M392.26,-317.23C408.78,-298.25 447.87,-256.13 489,-232 492.62,-229.88 496.44,-227.9 500.37,-226.07"/>
<polygon fill="midnightblue" stroke="midnightblue" points="501.88,-229.23 509.68,-222.05 499.11,-222.8 501.88,-229.23"/>
</g>
<!-- Node13 -->
<g id="node13" class="node">
<title>Node13</title>
<g id="a_node13"><a xlink:href="dm-zap-reclaim_8c.html#ae87b59374b0a3319284ea4cc0d1ca5d3" target="_top" xlink:title=" ">
<polygon fill="none" stroke="black" points="500.5,-405 500.5,-435 627.5,-435 627.5,-405 500.5,-405"/>
<text text-anchor="start" x="508.5" y="-423" font-family="Helvetica,sans-Serif" font-size="10.00">dmzap_unassign_zone</text>
<text text-anchor="middle" x="564" y="-412" font-family="Helvetica,sans-Serif" font-size="10.00">_from_class_0</text>
</a>
</g>
</g>
<!-- Node4&#45;&gt;Node13 -->
<g id="edge14" class="edge">
<title>Node4&#45;&gt;Node13</title>
<path fill="none" stroke="midnightblue" d="M396.28,-336.66C415.24,-351.19 453.21,-378.82 489,-396 492.84,-397.84 496.85,-399.59 500.93,-401.25"/>
<polygon fill="midnightblue" stroke="midnightblue" points="499.97,-404.63 510.56,-404.94 502.47,-398.09 499.97,-404.63"/>
</g>
<!-- Node14 -->
<g id="node14" class="node">
<title>Node14</title>
<g id="a_node14"><a xlink:href="dm-zap-reclaim_8c.html#a9c515d3ce4d889f383f47bbe4bdf9fef" target="_top" xlink:title=" ">
<polygon fill="none" stroke="black" points="500.5,-356 500.5,-386 627.5,-386 627.5,-356 500.5,-356"/>
<text text-anchor="start" x="508.5" y="-374" font-family="Helvetica,sans-Serif" font-size="10.00">dmzap_unassign_zone</text>
<text text-anchor="middle" x="564" y="-363" font-family="Helvetica,sans-Serif" font-size="10.00">_from_class_1</text>
</a>
</g>
</g>
<!-- Node4&#45;&gt;Node14 -->
<g id="edge15" class="edge">
<title>Node4&#45;&gt;Node14</title>
<path fill="none" stroke="midnightblue" d="M422.84,-336.55C442.99,-341.5 468.26,-347.71 491.76,-353.49"/>
<polygon fill="midnightblue" stroke="midnightblue" points="491.16,-356.95 501.71,-355.93 492.84,-350.15 491.16,-356.95"/>
</g>
<!-- Node9 -->
<g id="node9" class="node">
<title>Node9</title>
<g id="a_node9"><a xlink:href="dm-zap-heap_8c.html#a119d1a49869fe299372ea1c0d38d42b2" target="_top" xlink:title=" ">
<polygon fill="none" stroke="black" points="692,-416.5 692,-435.5 792,-435.5 792,-416.5 692,-416.5"/>
<text text-anchor="middle" x="742" y="-423.5" font-family="Helvetica,sans-Serif" font-size="10.00">heap_filter_down</text>
</a>
</g>
</g>
<!-- Node8&#45;&gt;Node9 -->
<g id="edge8" class="edge">
<title>Node8&#45;&gt;Node9</title>
<path fill="none" stroke="midnightblue" d="M609.41,-454.41C632.95,-449.33 662.06,-443.04 686.9,-437.68"/>
<polygon fill="midnightblue" stroke="midnightblue" points="687.87,-441.05 696.91,-435.52 686.39,-434.21 687.87,-441.05"/>
</g>
<!-- Node10 -->
<g id="node10" class="node">
<title>Node10</title>
<g id="a_node10"><a xlink:href="dm-zap-heap_8c.html#af3905b55203580ed6ff74063f158db73" target="_top" xlink:title=" ">
<polygon fill="none" stroke="black" points="871.5,-416.5 871.5,-435.5 952.5,-435.5 952.5,-416.5 871.5,-416.5"/>
<text text-anchor="middle" x="912" y="-423.5" font-family="Helvetica,sans-Serif" font-size="10.00">updated_cwa</text>
</a>
</g>
</g>
<!-- Node8&#45;&gt;Node10 -->
<g id="edge12" class="edge">
<title>Node8&#45;&gt;Node10</title>
<path fill="none" stroke="midnightblue" d="M623.36,-461.21C672.9,-458.41 745.81,-453.32 809,-445 826.16,-442.74 844.8,-439.5 861.4,-436.34"/>
<polygon fill="midnightblue" stroke="midnightblue" points="862.29,-439.73 871.44,-434.38 860.95,-432.86 862.29,-439.73"/>
</g>
<!-- Node11 -->
<g id="node11" class="node">
<title>Node11</title>
<g id="a_node11"><a xlink:href="dm-zap-heap_8c.html#a3b3766ed922ee8d7aeab183d362c7ada" target="_top" xlink:title=" ">
<polygon fill="none" stroke="black" points="699,-378.5 699,-397.5 785,-397.5 785,-378.5 699,-378.5"/>
<text text-anchor="middle" x="742" y="-385.5" font-family="Helvetica,sans-Serif" font-size="10.00">heap_filter_up</text>
</a>
</g>
</g>
<!-- Node8&#45;&gt;Node11 -->
<g id="edge10" class="edge">
<title>Node8&#45;&gt;Node11</title>
<path fill="none" stroke="midnightblue" d="M617.43,-454.49C624.95,-452.01 632.37,-448.9 639,-445 659.05,-433.2 655.12,-419.09 675,-407 679.41,-404.32 684.21,-402 689.15,-400"/>
<polygon fill="midnightblue" stroke="midnightblue" points="690.53,-403.22 698.75,-396.53 688.15,-396.64 690.53,-403.22"/>
</g>
<!-- Node9&#45;&gt;Node10 -->
<g id="edge9" class="edge">
<title>Node9&#45;&gt;Node10</title>
<path fill="none" stroke="midnightblue" d="M792.04,-426C813.87,-426 839.52,-426 861.4,-426"/>
<polygon fill="midnightblue" stroke="midnightblue" points="861.49,-429.5 871.49,-426 861.49,-422.5 861.49,-429.5"/>
</g>
<!-- Node11&#45;&gt;Node10 -->
<g id="edge11" class="edge">
<title>Node11&#45;&gt;Node10</title>
<path fill="none" stroke="midnightblue" d="M785.39,-397.59C808.44,-402.8 837.08,-409.28 861.19,-414.73"/>
<polygon fill="midnightblue" stroke="midnightblue" points="860.69,-418.21 871.22,-417 862.24,-411.38 860.69,-418.21"/>
</g>
<!-- Node16 -->
<g id="node16" class="node">
<title>Node16</title>
<g id="a_node16"><a xlink:href="dm-zap-target_8c.html#a902c8a19fa6f78d0b655379ebf3544f8" target="_top" xlink:title=" ">
<polygon fill="none" stroke="black" points="501.5,-568.5 501.5,-587.5 626.5,-587.5 626.5,-568.5 501.5,-568.5"/>
<text text-anchor="middle" x="564" y="-575.5" font-family="Helvetica,sans-Serif" font-size="10.00">dmzap_bdev_is_dying</text>
</a>
</g>
</g>
<!-- Node15&#45;&gt;Node16 -->
<g id="edge17" class="edge">
<title>Node15&#45;&gt;Node16</title>
<path fill="none" stroke="midnightblue" d="M421.52,-547.97C446.63,-553.3 480.09,-560.4 508.17,-566.36"/>
<polygon fill="midnightblue" stroke="midnightblue" points="507.74,-569.85 518.24,-568.5 509.19,-563 507.74,-569.85"/>
</g>
<!-- Node18 -->
<g id="node18" class="node">
<title>Node18</title>
<g id="a_node18"><a xlink:href="dm-zap-target_8c.html#a2310f0fec1559dfa36cc12f76d9c426c" target="_top" xlink:title=" ">
<polygon fill="none" stroke="black" points="511,-530.5 511,-549.5 617,-549.5 617,-530.5 511,-530.5"/>
<text text-anchor="middle" x="564" y="-537.5" font-family="Helvetica,sans-Serif" font-size="10.00">dmzap_init_bioctx</text>
</a>
</g>
</g>
<!-- Node15&#45;&gt;Node18 -->
<g id="edge20" class="edge">
<title>Node15&#45;&gt;Node18</title>
<path fill="none" stroke="midnightblue" d="M421.52,-540C444.42,-540 474.26,-540 500.64,-540"/>
<polygon fill="midnightblue" stroke="midnightblue" points="500.93,-543.5 510.93,-540 500.93,-536.5 500.93,-543.5"/>
</g>
<!-- Node19 -->
<g id="node19" class="node">
<title>Node19</title>
<g id="a_node19"><a xlink:href="dm-zap-target_8c.html#a91bb5f12809f481c64891e1a3d43c22e" target="_top" xlink:title=" ">
<polygon fill="none" stroke="black" points="489.5,-644.5 489.5,-663.5 638.5,-663.5 638.5,-644.5 489.5,-644.5"/>
<text text-anchor="middle" x="564" y="-651.5" font-family="Helvetica,sans-Serif" font-size="10.00">dmzap_queue_chunk_work</text>
</a>
</g>
</g>
<!-- Node15&#45;&gt;Node19 -->
<g id="edge21" class="edge">
<title>Node15&#45;&gt;Node19</title>
<path fill="none" stroke="midnightblue" d="M398.95,-549.52C429.94,-569.26 501.38,-614.76 538.94,-638.68"/>
<polygon fill="midnightblue" stroke="midnightblue" points="537.39,-641.84 547.71,-644.26 541.16,-635.94 537.39,-641.84"/>
</g>
<!-- Node17 -->
<g id="node17" class="node">
<title>Node17</title>
<g id="a_node17"><a xlink:href="dm-zap-target_8c.html#a6762b2612cfb1a541d2fecfa420890a9" target="_top" xlink:title=" ">
<polygon fill="none" stroke="black" points="685.5,-568.5 685.5,-587.5 798.5,-587.5 798.5,-568.5 685.5,-568.5"/>
<text text-anchor="middle" x="742" y="-575.5" font-family="Helvetica,sans-Serif" font-size="10.00">dmzap_check_bdev</text>
</a>
</g>
</g>
<!-- Node16&#45;&gt;Node17 -->
<g id="edge18" class="edge">
<title>Node16&#45;&gt;Node17</title>
<path fill="none" stroke="midnightblue" d="M626.56,-571.53C642.25,-571.19 659.18,-571.16 675.08,-571.44"/>
<polygon fill="midnightblue" stroke="midnightblue" points="675.29,-574.95 685.36,-571.67 675.44,-567.95 675.29,-574.95"/>
</g>
<!-- Node17&#45;&gt;Node16 -->
<g id="edge19" class="edge">
<title>Node17&#45;&gt;Node16</title>
<path fill="none" stroke="midnightblue" d="M685.36,-584.33C669.87,-584.75 652.83,-584.86 636.56,-584.64"/>
<polygon fill="midnightblue" stroke="midnightblue" points="636.62,-581.14 626.56,-584.47 636.49,-588.14 636.62,-581.14"/>
</g>
<!-- Node20 -->
<g id="node20" class="node">
<title>Node20</title>
<g id="a_node20"><a xlink:href="dm-zap-target_8c.html#a8b7bb265a5ab0376e0b178ec8ca02fc2" target="_top" xlink:title=" ">
<polygon fill="none" stroke="black" points="682.5,-625.5 682.5,-644.5 801.5,-644.5 801.5,-625.5 682.5,-625.5"/>
<text text-anchor="middle" x="742" y="-632.5" font-family="Helvetica,sans-Serif" font-size="10.00">dmzap_chunk_work_</text>
</a>
</g>
</g>
<!-- Node19&#45;&gt;Node20 -->
<g id="edge22" class="edge">
<title>Node19&#45;&gt;Node20</title>
<path fill="none" stroke="midnightblue" d="M638.62,-646.05C649.8,-644.85 661.3,-643.6 672.36,-642.41"/>
<polygon fill="midnightblue" stroke="midnightblue" points="672.82,-645.88 682.38,-641.33 672.07,-638.92 672.82,-645.88"/>
</g>
<!-- Node29 -->
<g id="node29" class="node">
<title>Node29</title>
<g id="a_node29"><a xlink:href="dm-zap-reclaim_8c.html#a488830d87c9574425c57b956ef69c1d1" target="_top" xlink:title=" ">
<polygon fill="none" stroke="black" points="1018,-720.5 1018,-739.5 1152,-739.5 1152,-720.5 1018,-720.5"/>
<text text-anchor="middle" x="1085" y="-727.5" font-family="Helvetica,sans-Serif" font-size="10.00">dmzap_reclaim_bio_acc</text>
</a>
</g>
</g>
<!-- Node19&#45;&gt;Node29 -->
<g id="edge42" class="edge">
<title>Node19&#45;&gt;Node29</title>
<path fill="none" stroke="midnightblue" d="M587.72,-663.65C609.65,-672.53 643.99,-685.31 675,-692 789.26,-716.67 924.88,-725.33 1007.66,-728.36"/>
<polygon fill="midnightblue" stroke="midnightblue" points="1007.62,-731.86 1017.74,-728.71 1007.87,-724.87 1007.62,-731.86"/>
</g>
<!-- Node34 -->
<g id="node34" class="node">
<title>Node34</title>
<g id="a_node34"><a xlink:href="dm-zap-target_8c.html#acab4a77aede7e4b123b9f311c788662c" target="_top" xlink:title=" ">
<polygon fill="none" stroke="black" points="675,-663.5 675,-682.5 809,-682.5 809,-663.5 675,-663.5"/>
<text text-anchor="middle" x="742" y="-670.5" font-family="Helvetica,sans-Serif" font-size="10.00">dmzap_get_chunk_work</text>
</a>
</g>
</g>
<!-- Node19&#45;&gt;Node34 -->
<g id="edge41" class="edge">
<title>Node19&#45;&gt;Node34</title>
<path fill="none" stroke="midnightblue" d="M638.62,-661.95C647.29,-662.88 656.14,-663.84 664.84,-664.78"/>
<polygon fill="midnightblue" stroke="midnightblue" points="664.65,-668.28 674.96,-665.87 665.4,-661.32 664.65,-668.28"/>
</g>
<!-- Node21 -->
<g id="node21" class="node">
<title>Node21</title>
<g id="a_node21"><a xlink:href="dm-zap-target_8c.html#ac361600a0ef24d3abe058b76ee4a7c43" target="_top" xlink:title=" ">
<polygon fill="none" stroke="black" points="858,-606.5 858,-625.5 966,-625.5 966,-606.5 858,-606.5"/>
<text text-anchor="middle" x="912" y="-613.5" font-family="Helvetica,sans-Serif" font-size="10.00">dmzap_handle_bio</text>
</a>
</g>
</g>
<!-- Node20&#45;&gt;Node21 -->
<g id="edge23" class="edge">
<title>Node20&#45;&gt;Node21</title>
<path fill="none" stroke="midnightblue" d="M801.76,-628.35C816.6,-626.68 832.59,-624.87 847.65,-623.17"/>
<polygon fill="midnightblue" stroke="midnightblue" points="848.35,-626.61 857.89,-622.01 847.56,-619.65 848.35,-626.61"/>
</g>
<!-- Node33 -->
<g id="node33" class="node">
<title>Node33</title>
<g id="a_node33"><a xlink:href="dm-zap-target_8c.html#ad13adf339e55f703d1843f2935ac10ce" target="_top" xlink:title=" ">
<polygon fill="none" stroke="black" points="845,-644.5 845,-663.5 979,-663.5 979,-644.5 845,-644.5"/>
<text text-anchor="middle" x="912" y="-651.5" font-family="Helvetica,sans-Serif" font-size="10.00">dmzap_put_chunk_work</text>
</a>
</g>
</g>
<!-- Node20&#45;&gt;Node33 -->
<g id="edge40" class="edge">
<title>Node20&#45;&gt;Node33</title>
<path fill="none" stroke="midnightblue" d="M801.76,-641.65C812.41,-642.85 823.65,-644.12 834.72,-645.37"/>
<polygon fill="midnightblue" stroke="midnightblue" points="834.48,-648.87 844.81,-646.51 835.27,-641.91 834.48,-648.87"/>
</g>
<!-- Node22 -->
<g id="node22" class="node">
<title>Node22</title>
<g id="a_node22"><a xlink:href="dm-zap-target_8c.html#a37a4fefdb9df57c7c1374e7abcd67350" target="_top" xlink:title=" ">
<polygon fill="none" stroke="black" points="1505,-629.5 1505,-648.5 1607,-648.5 1607,-629.5 1505,-629.5"/>
<text text-anchor="middle" x="1556" y="-636.5" font-family="Helvetica,sans-Serif" font-size="10.00">dmzap_bio_endio</text>
</a>
</g>
</g>
<!-- Node21&#45;&gt;Node22 -->
<g id="edge24" class="edge">
<title>Node21&#45;&gt;Node22</title>
<path fill="none" stroke="midnightblue" d="M954.95,-625.54C973.28,-629.26 995.1,-633.09 1015,-635 1188.51,-651.67 1394.81,-646.24 1494.76,-642.01"/>
<polygon fill="midnightblue" stroke="midnightblue" points="1495.13,-645.5 1504.97,-641.57 1494.83,-638.51 1495.13,-645.5"/>
</g>
<!-- Node23 -->
<g id="node23" class="node">
<title>Node23</title>
<g id="a_node23"><a xlink:href="dm-zap-conv-io_8c.html#a7925b771905b762d867cc036018d80e6" target="_top" xlink:title=" ">
<polygon fill="none" stroke="black" points="1032.5,-606.5 1032.5,-625.5 1137.5,-625.5 1137.5,-606.5 1032.5,-606.5"/>
<text text-anchor="middle" x="1085" y="-613.5" font-family="Helvetica,sans-Serif" font-size="10.00">dmzap_conv_read</text>
</a>
</g>
</g>
<!-- Node21&#45;&gt;Node23 -->
<g id="edge25" class="edge">
<title>Node21&#45;&gt;Node23</title>
<path fill="none" stroke="midnightblue" d="M966.17,-616C983.95,-616 1003.93,-616 1022.31,-616"/>
<polygon fill="midnightblue" stroke="midnightblue" points="1022.33,-619.5 1032.33,-616 1022.33,-612.5 1022.33,-619.5"/>
</g>
<!-- Node27 -->
<g id="node27" class="node">
<title>Node27</title>
<g id="a_node27"><a xlink:href="dm-zap-conv-io_8c.html#ad1f33cfd745c84f6c4b5d921a48b88ba" target="_top" xlink:title=" ">
<polygon fill="none" stroke="black" points="1031,-530.5 1031,-549.5 1139,-549.5 1139,-530.5 1031,-530.5"/>
<text text-anchor="middle" x="1085" y="-537.5" font-family="Helvetica,sans-Serif" font-size="10.00">dmzap_conv_write</text>
</a>
</g>
</g>
<!-- Node21&#45;&gt;Node27 -->
<g id="edge32" class="edge">
<title>Node21&#45;&gt;Node27</title>
<path fill="none" stroke="midnightblue" d="M927.64,-606.32C946.96,-593.91 982.34,-572.39 1015,-559 1020.81,-556.62 1027.01,-554.44 1033.23,-552.47"/>
<polygon fill="midnightblue" stroke="midnightblue" points="1034.38,-555.78 1042.96,-549.55 1032.37,-549.07 1034.38,-555.78"/>
</g>
<!-- Node28 -->
<g id="node28" class="node">
<title>Node28</title>
<g id="a_node28"><a xlink:href="dm-zap-conv-io_8c.html#a14348d55390f7ef30faf83438cdcb165" target="_top" xlink:title=" ">
<polygon fill="none" stroke="black" points="1021,-568.5 1021,-587.5 1149,-587.5 1149,-568.5 1021,-568.5"/>
<text text-anchor="middle" x="1085" y="-575.5" font-family="Helvetica,sans-Serif" font-size="10.00">dmzap_handle_discard</text>
</a>
</g>
</g>
<!-- Node21&#45;&gt;Node28 -->
<g id="edge35" class="edge">
<title>Node21&#45;&gt;Node28</title>
<path fill="none" stroke="midnightblue" d="M956.15,-606.41C978.92,-601.35 1007.05,-595.1 1031.12,-589.75"/>
<polygon fill="midnightblue" stroke="midnightblue" points="1032.16,-593.11 1041.16,-587.52 1030.64,-586.27 1032.16,-593.11"/>
</g>
<!-- Node21&#45;&gt;Node29 -->
<g id="edge36" class="edge">
<title>Node21&#45;&gt;Node29</title>
<path fill="none" stroke="midnightblue" d="M963.61,-625.61C969.17,-628.06 974.46,-631.14 979,-635 1007.48,-659.2 986.38,-686.96 1015,-711 1017,-712.68 1019.13,-714.21 1021.37,-715.6"/>
<polygon fill="midnightblue" stroke="midnightblue" points="1019.93,-718.8 1030.41,-720.35 1023.18,-712.6 1019.93,-718.8"/>
</g>
<!-- Node30 -->
<g id="node30" class="node">
<title>Node30</title>
<g id="a_node30"><a xlink:href="dm-zap-reclaim_8c.html#a6c39a0bcf16e14b6e8150d5f03931f7a" target="_top" xlink:title=" ">
<polygon fill="none" stroke="black" points="1015,-682.5 1015,-701.5 1155,-701.5 1155,-682.5 1015,-682.5"/>
<text text-anchor="middle" x="1085" y="-689.5" font-family="Helvetica,sans-Serif" font-size="10.00">dmzap_schedule_reclaim</text>
</a>
</g>
</g>
<!-- Node21&#45;&gt;Node30 -->
<g id="edge37" class="edge">
<title>Node21&#45;&gt;Node30</title>
<path fill="none" stroke="midnightblue" d="M956.76,-625.5C964.42,-628.02 972.14,-631.15 979,-635 997.93,-645.62 996.36,-656.87 1015,-668 1022.12,-672.25 1030.11,-675.9 1038.05,-678.97"/>
<polygon fill="midnightblue" stroke="midnightblue" points="1037.07,-682.34 1047.66,-682.44 1039.44,-675.75 1037.07,-682.34"/>
</g>
<!-- Node24 -->
<g id="node24" class="node">
<title>Node24</title>
<g id="a_node24"><a xlink:href="dm-zap-map_8c.html#a96fe7def7b6b64c1de080f5b6120bbc7" target="_top" xlink:title=" ">
<polygon fill="none" stroke="black" points="1198.5,-506.5 1198.5,-525.5 1312.5,-525.5 1312.5,-506.5 1198.5,-506.5"/>
<text text-anchor="middle" x="1255.5" y="-513.5" font-family="Helvetica,sans-Serif" font-size="10.00">dmzap_map_lookup</text>
</a>
</g>
</g>
<!-- Node23&#45;&gt;Node24 -->
<g id="edge26" class="edge">
<title>Node23&#45;&gt;Node24</title>
<path fill="none" stroke="midnightblue" d="M1132.89,-606.43C1140.54,-603.94 1148.18,-600.84 1155,-597 1174.18,-586.2 1174.13,-577.13 1191,-563 1204.2,-551.95 1219.72,-540.43 1232.12,-531.57"/>
<polygon fill="midnightblue" stroke="midnightblue" points="1234.37,-534.26 1240.51,-525.62 1230.33,-528.55 1234.37,-534.26"/>
</g>
<!-- Node25 -->
<g id="node25" class="node">
<title>Node25</title>
<g id="a_node25"><a xlink:href="dm-zap-conv-io_8c.html#a48bbd468ae04a1786fa70e9bac23fcb4" target="_top" xlink:title=" ">
<polygon fill="none" stroke="black" points="1201,-572.5 1201,-591.5 1310,-591.5 1310,-572.5 1201,-572.5"/>
<text text-anchor="middle" x="1255.5" y="-579.5" font-family="Helvetica,sans-Serif" font-size="10.00">dmzap_submit_bio</text>
</a>
</g>
</g>
<!-- Node23&#45;&gt;Node25 -->
<g id="edge28" class="edge">
<title>Node23&#45;&gt;Node25</title>
<path fill="none" stroke="midnightblue" d="M1133.39,-606.44C1153.21,-602.44 1176.43,-597.75 1197.2,-593.56"/>
<polygon fill="midnightblue" stroke="midnightblue" points="1198.07,-596.96 1207.18,-591.55 1196.68,-590.1 1198.07,-596.96"/>
</g>
<!-- Node24&#45;&gt;Node15 -->
<g id="edge27" class="edge">
<title>Node24&#45;&gt;Node15</title>
<path fill="none" stroke="midnightblue" d="M1198.33,-512.29C1130.68,-508.14 1013.58,-502 913,-502 741,-502 741,-502 741,-502 628.68,-502 600.41,-506.76 489,-521 470.17,-523.41 449.6,-526.93 431.69,-530.29"/>
<polygon fill="midnightblue" stroke="midnightblue" points="430.93,-526.87 421.76,-532.19 432.24,-533.75 430.93,-526.87"/>
</g>
<!-- Node26 -->
<g id="node26" class="node">
<title>Node26</title>
<g id="a_node26"><a xlink:href="dm-zap-conv-io_8c.html#aafacfd036ebfe4dd20e8daa81f2578ae" target="_top" xlink:title=" ">
<polygon fill="none" stroke="black" points="1356,-572.5 1356,-591.5 1469,-591.5 1469,-572.5 1356,-572.5"/>
<text text-anchor="middle" x="1412.5" y="-579.5" font-family="Helvetica,sans-Serif" font-size="10.00">dmzap_clone_endio</text>
</a>
</g>
</g>
<!-- Node25&#45;&gt;Node26 -->
<g id="edge29" class="edge">
<title>Node25&#45;&gt;Node26</title>
<path fill="none" stroke="midnightblue" d="M1310.28,-582C1321.71,-582 1333.9,-582 1345.71,-582"/>
<polygon fill="midnightblue" stroke="midnightblue" points="1345.98,-585.5 1355.98,-582 1345.98,-578.5 1345.98,-585.5"/>
</g>
<!-- Node26&#45;&gt;Node1 -->
<g id="edge30" class="edge">
<title>Node26&#45;&gt;Node1</title>
<path fill="none" stroke="midnightblue" d="M1410.89,-572.38C1405.51,-496.71 1359.8,0 1086,0 382,0 382,0 382,0 225.27,0 102.26,-186.85 66.54,-247.34"/>
<polygon fill="midnightblue" stroke="midnightblue" points="63.39,-245.81 61.4,-256.22 69.44,-249.32 63.39,-245.81"/>
</g>
<!-- Node26&#45;&gt;Node22 -->
<g id="edge31" class="edge">
<title>Node26&#45;&gt;Node22</title>
<path fill="none" stroke="midnightblue" d="M1437.18,-591.54C1460.35,-600.87 1495.82,-615.16 1521.8,-625.62"/>
<polygon fill="midnightblue" stroke="midnightblue" points="1520.66,-628.94 1531.24,-629.43 1523.27,-622.45 1520.66,-628.94"/>
</g>
<!-- Node27&#45;&gt;Node2 -->
<g id="edge33" class="edge">
<title>Node27&#45;&gt;Node2</title>
<path fill="none" stroke="midnightblue" d="M1139.07,-548.11C1145,-550.8 1150.51,-554.35 1155,-559 1203.2,-608.97 1149.98,-654.99 1191,-711 1198.28,-720.94 1209.02,-728.77 1219.6,-734.67"/>
<polygon fill="midnightblue" stroke="midnightblue" points="1218.27,-737.92 1228.77,-739.36 1221.46,-731.69 1218.27,-737.92"/>
</g>
<!-- Node27&#45;&gt;Node25 -->
<g id="edge34" class="edge">
<title>Node27&#45;&gt;Node25</title>
<path fill="none" stroke="midnightblue" d="M1124.24,-549.53C1148.49,-555.58 1180.09,-563.45 1206.1,-569.94"/>
<polygon fill="midnightblue" stroke="midnightblue" points="1205.58,-573.41 1216.12,-572.43 1207.27,-566.62 1205.58,-573.41"/>
</g>
<!-- Node31 -->
<g id="node31" class="node">
<title>Node31</title>
<g id="a_node31"><a xlink:href="dm-zap-reclaim_8c.html#aa4936940b0549e555b58e8c6bb54feab" target="_top" xlink:title=" ">
<polygon fill="none" stroke="black" points="1191,-682.5 1191,-701.5 1320,-701.5 1320,-682.5 1191,-682.5"/>
<text text-anchor="middle" x="1255.5" y="-689.5" font-family="Helvetica,sans-Serif" font-size="10.00">dmzap_should_reclaim</text>
</a>
</g>
</g>
<!-- Node30&#45;&gt;Node31 -->
<g id="edge38" class="edge">
<title>Node30&#45;&gt;Node31</title>
<path fill="none" stroke="midnightblue" d="M1155.02,-692C1163.42,-692 1172.03,-692 1180.5,-692"/>
<polygon fill="midnightblue" stroke="midnightblue" points="1180.74,-695.5 1190.74,-692 1180.74,-688.5 1180.74,-695.5"/>
</g>
<!-- Node32 -->
<g id="node32" class="node">
<title>Node32</title>
<g id="a_node32"><a xlink:href="dm-zap-reclaim_8c.html#ad6cede47b4281f8ae6eecbe508d6da7b" target="_top" xlink:title=" ">
<polygon fill="none" stroke="black" points="1359,-682.5 1359,-701.5 1466,-701.5 1466,-682.5 1359,-682.5"/>
<text text-anchor="middle" x="1412.5" y="-689.5" font-family="Helvetica,sans-Serif" font-size="10.00">dmzap_target_idle</text>
</a>
</g>
</g>
<!-- Node31&#45;&gt;Node32 -->
<g id="edge39" class="edge">
<title>Node31&#45;&gt;Node32</title>
<path fill="none" stroke="midnightblue" d="M1320.44,-692C1329.65,-692 1339.12,-692 1348.32,-692"/>
<polygon fill="midnightblue" stroke="midnightblue" points="1348.55,-695.5 1358.55,-692 1348.55,-688.5 1348.55,-695.5"/>
</g>
<!-- Node36 -->
<g id="node36" class="node">
<title>Node36</title>
<g id="a_node36"><a xlink:href="dm-zap-reclaim_8c.html#a0e7b82ed38aa8c883bf91a98016b0de3" target="_top" xlink:title=" ">
<polygon fill="none" stroke="black" points="318,-192 318,-222 448,-222 448,-192 318,-192"/>
<text text-anchor="start" x="326" y="-210" font-family="Helvetica,sans-Serif" font-size="10.00">dmzap_assign_zone_to</text>
<text text-anchor="middle" x="383" y="-199" font-family="Helvetica,sans-Serif" font-size="10.00">_reclaim_class</text>
</a>
</g>
</g>
<!-- Node35&#45;&gt;Node36 -->
<g id="edge44" class="edge">
<title>Node35&#45;&gt;Node36</title>
<path fill="none" stroke="midnightblue" d="M246.8,-169.51C267.21,-175.17 293.75,-182.53 317.9,-189.23"/>
<polygon fill="midnightblue" stroke="midnightblue" points="317.16,-192.65 327.73,-191.95 319.03,-185.91 317.16,-192.65"/>
</g>
<!-- Node38 -->
<g id="node38" class="node">
<title>Node38</title>
<g id="a_node38"><a xlink:href="dm-zap-reclaim_8c.html#a4cc7efd524ee49f24fd2bf2e7f1bbbd1" target="_top" xlink:title=" ">
<polygon fill="none" stroke="black" points="313.5,-66.5 313.5,-85.5 452.5,-85.5 452.5,-66.5 313.5,-66.5"/>
<text text-anchor="middle" x="383" y="-73.5" font-family="Helvetica,sans-Serif" font-size="10.00">dmzap_calc_p_free_zone</text>
</a>
</g>
</g>
<!-- Node35&#45;&gt;Node38 -->
<g id="edge49" class="edge">
<title>Node35&#45;&gt;Node38</title>
<path fill="none" stroke="midnightblue" d="M224.49,-150.49C242.65,-136.51 278.68,-110.38 313,-95 318.3,-92.62 323.97,-90.48 329.69,-88.57"/>
<polygon fill="midnightblue" stroke="midnightblue" points="330.82,-91.88 339.32,-85.56 328.73,-85.2 330.82,-91.88"/>
</g>
<!-- Node39 -->
<g id="node39" class="node">
<title>Node39</title>
<g id="a_node39"><a xlink:href="dm-zap-heap_8c.html#a5f1f3e1001107290c155521d7f70d578" target="_top" xlink:title=" ">
<polygon fill="none" stroke="black" points="327,-104.5 327,-123.5 439,-123.5 439,-104.5 327,-104.5"/>
<text text-anchor="middle" x="383" y="-111.5" font-family="Helvetica,sans-Serif" font-size="10.00">dmzap_heap_insert</text>
</a>
</g>
</g>
<!-- Node35&#45;&gt;Node39 -->
<g id="edge50" class="edge">
<title>Node35&#45;&gt;Node39</title>
<path fill="none" stroke="midnightblue" d="M247.62,-150.47C273.53,-143.44 308.99,-133.81 336.98,-126.22"/>
<polygon fill="midnightblue" stroke="midnightblue" points="338.19,-129.52 346.92,-123.52 336.36,-122.76 338.19,-129.52"/>
</g>
<!-- Node36&#45;&gt;Node6 -->
<g id="edge46" class="edge">
<title>Node36&#45;&gt;Node6</title>
<path fill="none" stroke="midnightblue" d="M405.15,-222.2C425.69,-236.35 458.21,-257.13 489,-270 494.86,-272.45 501.12,-274.65 507.43,-276.6"/>
<polygon fill="midnightblue" stroke="midnightblue" points="506.74,-280.05 517.32,-279.48 508.69,-273.33 506.74,-280.05"/>
</g>
<!-- Node36&#45;&gt;Node7 -->
<g id="edge47" class="edge">
<title>Node36&#45;&gt;Node7</title>
<path fill="none" stroke="midnightblue" d="M445.1,-222.02C467.75,-227.59 493.1,-233.82 514.47,-239.07"/>
<polygon fill="midnightblue" stroke="midnightblue" points="513.76,-242.5 524.3,-241.49 515.43,-235.7 513.76,-242.5"/>
</g>
<!-- Node36&#45;&gt;Node12 -->
<g id="edge48" class="edge">
<title>Node36&#45;&gt;Node12</title>
<path fill="none" stroke="midnightblue" d="M448.12,-207C461.92,-207 476.6,-207 490.69,-207"/>
<polygon fill="midnightblue" stroke="midnightblue" points="490.83,-210.5 500.83,-207 490.83,-203.5 490.83,-210.5"/>
</g>
<!-- Node37 -->
<g id="node37" class="node">
<title>Node37</title>
<g id="a_node37"><a xlink:href="dm-zap-reclaim_8c.html#abcc671c0e5458059ed2c5a769e7b2342" target="_top" xlink:title=" ">
<polygon fill="none" stroke="black" points="499,-143 499,-173 629,-173 629,-143 499,-143"/>
<text text-anchor="start" x="507" y="-161" font-family="Helvetica,sans-Serif" font-size="10.00">dmzap_assign_zone_to</text>
<text text-anchor="middle" x="564" y="-150" font-family="Helvetica,sans-Serif" font-size="10.00">_class_0</text>
</a>
</g>
</g>
<!-- Node36&#45;&gt;Node37 -->
<g id="edge45" class="edge">
<title>Node36&#45;&gt;Node37</title>
<path fill="none" stroke="midnightblue" d="M439.17,-191.9C457.88,-186.77 478.96,-181 498.35,-175.7"/>
<polygon fill="midnightblue" stroke="midnightblue" points="499.29,-179.07 508.02,-173.05 497.45,-172.32 499.29,-179.07"/>
</g>
<!-- Node39&#45;&gt;Node11 -->
<g id="edge53" class="edge">
<title>Node39&#45;&gt;Node11</title>
<path fill="none" stroke="midnightblue" d="M428.47,-104.44C483.49,-95.3 577.45,-88.78 639,-134 717.18,-191.43 735.53,-318.78 739.76,-368.02"/>
<polygon fill="midnightblue" stroke="midnightblue" points="736.29,-368.57 740.53,-378.28 743.27,-368.05 736.29,-368.57"/>
</g>
<!-- Node40 -->
<g id="node40" class="node">
<title>Node40</title>
<g id="a_node40"><a xlink:href="dm-zap-heap_8c.html#aad1aabfd14cc3bac117e93a678764421" target="_top" xlink:title=" ">
<polygon fill="none" stroke="black" points="510.5,-66.5 510.5,-85.5 617.5,-85.5 617.5,-66.5 510.5,-66.5"/>
<text text-anchor="middle" x="564" y="-73.5" font-family="Helvetica,sans-Serif" font-size="10.00">assert_heap_is_ok</text>
</a>
</g>
</g>
<!-- Node39&#45;&gt;Node40 -->
<g id="edge51" class="edge">
<title>Node39&#45;&gt;Node40</title>
<path fill="none" stroke="midnightblue" d="M429.17,-104.41C453.22,-99.31 482.97,-92.99 508.32,-87.61"/>
<polygon fill="midnightblue" stroke="midnightblue" points="509.1,-91.02 518.16,-85.52 507.65,-84.17 509.1,-91.02"/>
</g>
<!-- Node41 -->
<g id="node41" class="node">
<title>Node41</title>
<g id="a_node41"><a xlink:href="dm-zap-heap_8c.html#a064a0465c8983944a7d65e1b2ecef375" target="_top" xlink:title=" ">
<polygon fill="none" stroke="black" points="489,-28.5 489,-47.5 639,-47.5 639,-28.5 489,-28.5"/>
<text text-anchor="middle" x="564" y="-35.5" font-family="Helvetica,sans-Serif" font-size="10.00">dmzap_heap_increase_size</text>
</a>
</g>
</g>
<!-- Node39&#45;&gt;Node41 -->
<g id="edge52" class="edge">
<title>Node39&#45;&gt;Node41</title>
<path fill="none" stroke="midnightblue" d="M432.17,-104.39C439.42,-101.92 446.61,-98.84 453,-95 472.95,-83.03 468.95,-68.8 489,-57 492.83,-54.74 496.93,-52.75 501.16,-51"/>
<polygon fill="midnightblue" stroke="midnightblue" points="502.41,-54.27 510.57,-47.51 499.98,-47.7 502.41,-54.27"/>
</g>
</g>
</svg>
