<?xml version="1.0" encoding="UTF-8" standalone="no"?>
<!DOCTYPE svg PUBLIC "-//W3C//DTD SVG 1.1//EN"
 "http://www.w3.org/Graphics/SVG/1.1/DTD/svg11.dtd">
<!-- Generated by graphviz version 2.43.0 (0)
 -->
<!-- Title: dmzap_rb_insert_zone_class_1 Pages: 1 -->
<svg width="491pt" height="135pt"
 viewBox="0.00 0.00 491.00 135.00" xmlns="http://www.w3.org/2000/svg" xmlns:xlink="http://www.w3.org/1999/xlink">
<g id="graph0" class="graph" transform="scale(1 1) rotate(0) translate(4 131)">
<title>dmzap_rb_insert_zone_class_1</title>
<!-- Node1 -->
<g id="node1" class="node">
<title>Node1</title>
<g id="a_node1"><a xlink:title=" ">
<polygon fill="#bfbfbf" stroke="black" points="357,-58 357,-88 483,-88 483,-58 357,-58"/>
<text text-anchor="start" x="365" y="-76" font-family="Helvetica,sans-Serif" font-size="10.00">dmzap_rb_insert_zone</text>
<text text-anchor="middle" x="420" y="-65" font-family="Helvetica,sans-Serif" font-size="10.00">_class_1</text>
</a>
</g>
</g>
<!-- Node2 -->
<g id="node2" class="node">
<title>Node2</title>
<g id="a_node2"><a xlink:href="dm-zap-reclaim_8c.html#af5d5ec66bcc5e7da13b40b4263538841" target="_top" xlink:title=" ">
<polygon fill="none" stroke="black" points="211,-107.5 211,-126.5 291,-126.5 291,-107.5 211,-107.5"/>
<text text-anchor="middle" x="251" y="-114.5" font-family="Helvetica,sans-Serif" font-size="10.00">__attribute__</text>
</a>
</g>
</g>
<!-- Node1&#45;&gt;Node2 -->
<g id="edge1" class="edge">
<title>Node1&#45;&gt;Node2</title>
<path fill="none" stroke="midnightblue" d="M352.13,-90.62C330.36,-96.35 307.02,-102.5 288.35,-107.42"/>
<polygon fill="midnightblue" stroke="midnightblue" points="353.22,-93.95 362,-88.02 351.43,-87.18 353.22,-93.95"/>
</g>
<!-- Node3 -->
<g id="node3" class="node">
<title>Node3</title>
<g id="a_node3"><a xlink:href="dm-zap-reclaim_8c.html#a0e7b82ed38aa8c883bf91a98016b0de3" target="_top" xlink:title=" ">
<polygon fill="none" stroke="black" points="186,-58 186,-88 316,-88 316,-58 186,-58"/>
<text text-anchor="start" x="194" y="-76" font-family="Helvetica,sans-Serif" font-size="10.00">dmzap_assign_zone_to</text>
<text text-anchor="middle" x="251" y="-65" font-family="Helvetica,sans-Serif" font-size="10.00">_reclaim_class</text>
</a>
</g>
</g>
<!-- Node1&#45;&gt;Node3 -->
<g id="edge2" class="edge">
<title>Node1&#45;&gt;Node3</title>
<path fill="none" stroke="midnightblue" d="M346.75,-73C336.58,-73 326.19,-73 316.19,-73"/>
<polygon fill="midnightblue" stroke="midnightblue" points="346.82,-76.5 356.82,-73 346.82,-69.5 346.82,-76.5"/>
</g>
<!-- Node4 -->
<g id="node4" class="node">
<title>Node4</title>
<g id="a_node4"><a xlink:href="dm-zap-reclaim_8c.html#a3cf8ab902c6292cdb2dfe84d10ffd11d" target="_top" xlink:title=" ">
<polygon fill="none" stroke="black" points="181,-19.5 181,-38.5 321,-38.5 321,-19.5 181,-19.5"/>
<text text-anchor="middle" x="251" y="-26.5" font-family="Helvetica,sans-Serif" font-size="10.00">dmzap_invalidate_blocks</text>
</a>
</g>
</g>
<!-- Node1&#45;&gt;Node4 -->
<g id="edge3" class="edge">
<title>Node1&#45;&gt;Node4</title>
<path fill="none" stroke="midnightblue" d="M352.13,-55.38C330.36,-49.65 307.02,-43.5 288.35,-38.58"/>
<polygon fill="midnightblue" stroke="midnightblue" points="351.43,-58.82 362,-57.98 353.22,-52.05 351.43,-58.82"/>
</g>
<!-- Node5 -->
<g id="node5" class="node">
<title>Node5</title>
<g id="a_node5"><a xlink:href="dm-zap-map_8c.html#af559eb37c90d70f6ec1b3a821f3c05ea" target="_top" xlink:title=" ">
<polygon fill="none" stroke="black" points="14.5,-38.5 14.5,-57.5 130.5,-57.5 130.5,-38.5 14.5,-38.5"/>
<text text-anchor="middle" x="72.5" y="-45.5" font-family="Helvetica,sans-Serif" font-size="10.00">dmzap_map_update</text>
</a>
</g>
</g>
<!-- Node4&#45;&gt;Node5 -->
<g id="edge4" class="edge">
<title>Node4&#45;&gt;Node5</title>
<path fill="none" stroke="midnightblue" d="M170.53,-37.55C157.07,-39 143.34,-40.48 130.6,-41.85"/>
<polygon fill="midnightblue" stroke="midnightblue" points="171.18,-41.01 180.75,-36.45 170.43,-34.05 171.18,-41.01"/>
</g>
<!-- Node6 -->
<g id="node6" class="node">
<title>Node6</title>
<g id="a_node6"><a xlink:href="dm-zap-map_8c.html#ad7d74cba1614a30428862ed7daf711cf" target="_top" xlink:title=" ">
<polygon fill="none" stroke="black" points="0,-0.5 0,-19.5 145,-19.5 145,-0.5 0,-0.5"/>
<text text-anchor="middle" x="72.5" y="-7.5" font-family="Helvetica,sans-Serif" font-size="10.00">dmzap_map_update_if_eq</text>
</a>
</g>
</g>
<!-- Node4&#45;&gt;Node6 -->
<g id="edge5" class="edge">
<title>Node4&#45;&gt;Node6</title>
<path fill="none" stroke="midnightblue" d="M170.8,-20.47C162.26,-19.55 153.61,-18.62 145.17,-17.71"/>
<polygon fill="midnightblue" stroke="midnightblue" points="170.43,-23.95 180.75,-21.55 171.18,-16.99 170.43,-23.95"/>
</g>
</g>
</svg>
