<?xml version="1.0" encoding="UTF-8" standalone="no"?>
<!DOCTYPE svg PUBLIC "-//W3C//DTD SVG 1.1//EN"
 "http://www.w3.org/Graphics/SVG/1.1/DTD/svg11.dtd">
<!-- Generated by graphviz version 2.43.0 (0)
 -->
<!-- Title: compare Pages: 1 -->
<svg width="978pt" height="88pt"
 viewBox="0.00 0.00 978.00 88.00" xmlns="http://www.w3.org/2000/svg" xmlns:xlink="http://www.w3.org/1999/xlink">
<g id="graph0" class="graph" transform="scale(1 1) rotate(0) translate(4 84)">
<title>compare</title>
<!-- Node1 -->
<g id="node1" class="node">
<title>Node1</title>
<g id="a_node1"><a xlink:title=" ">
<polygon fill="#bfbfbf" stroke="black" points="911,-30 911,-49 970,-49 970,-30 911,-30"/>
<text text-anchor="middle" x="940.5" y="-37" font-family="Helvetica,sans-Serif" font-size="10.00">compare</text>
</a>
</g>
</g>
<!-- Node2 -->
<g id="node2" class="node">
<title>Node2</title>
<g id="a_node2"><a xlink:href="dm-zap-reclaim_8c.html#ab7222d46e017866c44185898dd95506b" target="_top" xlink:title=" ">
<polygon fill="none" stroke="black" points="729,-52 729,-71 875,-71 875,-52 729,-52"/>
<text text-anchor="middle" x="802" y="-59" font-family="Helvetica,sans-Serif" font-size="10.00">dmzap_ajust_threshold_cb</text>
</a>
</g>
</g>
<!-- Node1&#45;&gt;Node2 -->
<g id="edge1" class="edge">
<title>Node1&#45;&gt;Node2</title>
<path fill="none" stroke="midnightblue" d="M900.72,-45.75C888.66,-47.69 875.07,-49.88 861.95,-52"/>
<polygon fill="midnightblue" stroke="midnightblue" points="901.57,-49.16 910.89,-44.11 900.46,-42.25 901.57,-49.16"/>
</g>
<!-- Node8 -->
<g id="node8" class="node">
<title>Node8</title>
<g id="a_node8"><a xlink:href="dm-zap-reclaim_8c.html#a1ad914a6012fa99a3ca666725569222f" target="_top" xlink:title=" ">
<polygon fill="none" stroke="black" points="552,-0.5 552,-30.5 693,-30.5 693,-0.5 552,-0.5"/>
<text text-anchor="start" x="560" y="-18.5" font-family="Helvetica,sans-Serif" font-size="10.00">dmzap_approx_cb_victim</text>
<text text-anchor="middle" x="622.5" y="-7.5" font-family="Helvetica,sans-Serif" font-size="10.00">_selection</text>
</a>
</g>
</g>
<!-- Node1&#45;&gt;Node8 -->
<g id="edge7" class="edge">
<title>Node1&#45;&gt;Node8</title>
<path fill="none" stroke="midnightblue" d="M900.85,-36.56C849.3,-32.65 757.15,-25.65 693.29,-20.8"/>
<polygon fill="midnightblue" stroke="midnightblue" points="900.66,-40.06 910.9,-37.33 901.19,-33.08 900.66,-40.06"/>
</g>
<!-- Node3 -->
<g id="node3" class="node">
<title>Node3</title>
<g id="a_node3"><a xlink:href="dm-zap-reclaim_8c.html#ad3183f7d98458ab6e003454cdec4bed8" target="_top" xlink:title=" ">
<polygon fill="none" stroke="black" points="559.5,-49.5 559.5,-79.5 685.5,-79.5 685.5,-49.5 559.5,-49.5"/>
<text text-anchor="start" x="567.5" y="-67.5" font-family="Helvetica,sans-Serif" font-size="10.00">dmzap_fast_cb_victim</text>
<text text-anchor="middle" x="622.5" y="-56.5" font-family="Helvetica,sans-Serif" font-size="10.00">_selection</text>
</a>
</g>
</g>
<!-- Node2&#45;&gt;Node3 -->
<g id="edge2" class="edge">
<title>Node2&#45;&gt;Node3</title>
<path fill="none" stroke="midnightblue" d="M718.67,-62.89C707.57,-63.08 696.34,-63.27 685.67,-63.45"/>
<polygon fill="midnightblue" stroke="midnightblue" points="718.86,-66.39 728.8,-62.72 718.75,-59.39 718.86,-66.39"/>
</g>
<!-- Node4 -->
<g id="node4" class="node">
<title>Node4</title>
<g id="a_node4"><a xlink:href="dm-zap-reclaim_8c.html#a3c52e6b4c5da86cbea57d48ee5c1d76d" target="_top" xlink:title=" ">
<polygon fill="none" stroke="black" points="407,-30 407,-49 516,-49 516,-30 407,-30"/>
<text text-anchor="middle" x="461.5" y="-37" font-family="Helvetica,sans-Serif" font-size="10.00">dmzap_do_reclaim</text>
</a>
</g>
</g>
<!-- Node3&#45;&gt;Node4 -->
<g id="edge3" class="edge">
<title>Node3&#45;&gt;Node4</title>
<path fill="none" stroke="midnightblue" d="M549.04,-53.11C537.99,-51.37 526.76,-49.6 516.21,-47.94"/>
<polygon fill="midnightblue" stroke="midnightblue" points="548.69,-56.6 559.12,-54.69 549.78,-49.68 548.69,-56.6"/>
</g>
<!-- Node5 -->
<g id="node5" class="node">
<title>Node5</title>
<g id="a_node5"><a xlink:href="dm-zap-reclaim_8c.html#ac87f38c9e7971549f44e8aba65ddafcc" target="_top" xlink:title=" ">
<polygon fill="none" stroke="black" points="250,-30 250,-49 371,-49 371,-30 250,-30"/>
<text text-anchor="middle" x="310.5" y="-37" font-family="Helvetica,sans-Serif" font-size="10.00">dmzap_reclaim_work</text>
</a>
</g>
</g>
<!-- Node4&#45;&gt;Node5 -->
<g id="edge4" class="edge">
<title>Node4&#45;&gt;Node5</title>
<path fill="none" stroke="midnightblue" d="M396.51,-39.5C388.05,-39.5 379.4,-39.5 371.02,-39.5"/>
<polygon fill="midnightblue" stroke="midnightblue" points="396.71,-43 406.71,-39.5 396.71,-36 396.71,-43"/>
</g>
<!-- Node6 -->
<g id="node6" class="node">
<title>Node6</title>
<g id="a_node6"><a xlink:href="dm-zap-reclaim_8c.html#afac8044514d6358994c4d9eb2349ef54" target="_top" xlink:title=" ">
<polygon fill="none" stroke="black" points="104,-30 104,-49 214,-49 214,-30 104,-30"/>
<text text-anchor="middle" x="159" y="-37" font-family="Helvetica,sans-Serif" font-size="10.00">dmzap_ctr_reclaim</text>
</a>
</g>
</g>
<!-- Node5&#45;&gt;Node6 -->
<g id="edge5" class="edge">
<title>Node5&#45;&gt;Node6</title>
<path fill="none" stroke="midnightblue" d="M239.71,-39.5C231.24,-39.5 222.67,-39.5 214.46,-39.5"/>
<polygon fill="midnightblue" stroke="midnightblue" points="239.98,-43 249.98,-39.5 239.98,-36 239.98,-43"/>
</g>
<!-- Node7 -->
<g id="node7" class="node">
<title>Node7</title>
<g id="a_node7"><a xlink:href="dm-zap-target_8c.html#a533fd7adf57bc9829cbca54a8b3764ad" target="_top" xlink:title=" ">
<polygon fill="none" stroke="black" points="0,-30 0,-49 68,-49 68,-30 0,-30"/>
<text text-anchor="middle" x="34" y="-37" font-family="Helvetica,sans-Serif" font-size="10.00">dmzap_ctr</text>
</a>
</g>
</g>
<!-- Node6&#45;&gt;Node7 -->
<g id="edge6" class="edge">
<title>Node6&#45;&gt;Node7</title>
<path fill="none" stroke="midnightblue" d="M93.44,-39.5C84.7,-39.5 76.04,-39.5 68.17,-39.5"/>
<polygon fill="midnightblue" stroke="midnightblue" points="93.69,-43 103.69,-39.5 93.69,-36 93.69,-43"/>
</g>
<!-- Node8&#45;&gt;Node4 -->
<g id="edge8" class="edge">
<title>Node8&#45;&gt;Node4</title>
<path fill="none" stroke="midnightblue" d="M541.72,-27.54C533.14,-28.84 524.57,-30.13 516.41,-31.36"/>
<polygon fill="midnightblue" stroke="midnightblue" points="542.39,-30.98 551.76,-26.03 541.35,-24.06 542.39,-30.98"/>
</g>
</g>
</svg>
