<?xml version="1.0" encoding="UTF-8" standalone="no"?>
<!DOCTYPE svg PUBLIC "-//W3C//DTD SVG 1.1//EN"
 "http://www.w3.org/Graphics/SVG/1.1/DTD/svg11.dtd">
<!-- Generated by graphviz version 2.43.0 (0)
 -->
<!-- Title: dmzap_copy_valid_data Pages: 1 -->
<svg width="327pt" height="104pt"
 viewBox="0.00 0.00 327.00 104.00" xmlns="http://www.w3.org/2000/svg" xmlns:xlink="http://www.w3.org/1999/xlink">
<g id="graph0" class="graph" transform="scale(1 1) rotate(0) translate(4 100)">
<title>dmzap_copy_valid_data</title>
<!-- Node1 -->
<g id="node1" class="node">
<title>Node1</title>
<g id="a_node1"><a xlink:title=" ">
<polygon fill="#bfbfbf" stroke="black" points="0,-38.5 0,-57.5 134,-57.5 134,-38.5 0,-38.5"/>
<text text-anchor="middle" x="67" y="-45.5" font-family="Helvetica,sans-Serif" font-size="10.00">dmzap_copy_valid_data</text>
</a>
</g>
</g>
<!-- Node2 -->
<g id="node2" class="node">
<title>Node2</title>
<g id="a_node2"><a xlink:href="dm-zap-map_8c.html#a9ce5bc680f9b5784aecb5b219285f5aa" target="_top" xlink:title=" ">
<polygon fill="none" stroke="black" points="178.5,-76.5 178.5,-95.5 310.5,-95.5 310.5,-76.5 178.5,-76.5"/>
<text text-anchor="middle" x="244.5" y="-83.5" font-family="Helvetica,sans-Serif" font-size="10.00">dmzap_get_invalid_flag</text>
</a>
</g>
</g>
<!-- Node1&#45;&gt;Node2 -->
<g id="edge1" class="edge">
<title>Node1&#45;&gt;Node2</title>
<path fill="none" stroke="midnightblue" d="M112.29,-57.59C135.76,-62.67 164.78,-68.96 189.56,-74.32"/>
<polygon fill="midnightblue" stroke="midnightblue" points="189.02,-77.78 199.53,-76.48 190.5,-70.94 189.02,-77.78"/>
</g>
<!-- Node3 -->
<g id="node3" class="node">
<title>Node3</title>
<g id="a_node3"><a xlink:href="dm-zap-reclaim_8c.html#ade3803c0a0681d0c2a35eddb1474663b" target="_top" xlink:title=" ">
<polygon fill="none" stroke="black" points="170,-38.5 170,-57.5 319,-57.5 319,-38.5 170,-38.5"/>
<text text-anchor="middle" x="244.5" y="-45.5" font-family="Helvetica,sans-Serif" font-size="10.00">dmzap_reclaim_kcopy_end</text>
</a>
</g>
</g>
<!-- Node1&#45;&gt;Node3 -->
<g id="edge2" class="edge">
<title>Node1&#45;&gt;Node3</title>
<path fill="none" stroke="midnightblue" d="M134.35,-48C142.56,-48 151.04,-48 159.47,-48"/>
<polygon fill="midnightblue" stroke="midnightblue" points="159.71,-51.5 169.71,-48 159.71,-44.5 159.71,-51.5"/>
</g>
<!-- Node4 -->
<g id="node4" class="node">
<title>Node4</title>
<g id="a_node4"><a xlink:href="dm-zap-map_8c.html#a8b33c484fe62fd84b76c014877ef9f68" target="_top" xlink:title=" ">
<polygon fill="none" stroke="black" points="187,-0.5 187,-19.5 302,-19.5 302,-0.5 187,-0.5"/>
<text text-anchor="middle" x="244.5" y="-7.5" font-family="Helvetica,sans-Serif" font-size="10.00">dmzap_remap_copy</text>
</a>
</g>
</g>
<!-- Node1&#45;&gt;Node4 -->
<g id="edge3" class="edge">
<title>Node1&#45;&gt;Node4</title>
<path fill="none" stroke="midnightblue" d="M112.29,-38.41C135.76,-33.33 164.78,-27.04 189.56,-21.68"/>
<polygon fill="midnightblue" stroke="midnightblue" points="190.5,-25.06 199.53,-19.52 189.02,-18.22 190.5,-25.06"/>
</g>
</g>
</svg>
