<?xml version="1.0" encoding="UTF-8" standalone="no"?>
<!DOCTYPE svg PUBLIC "-//W3C//DTD SVG 1.1//EN"
 "http://www.w3.org/Graphics/SVG/1.1/DTD/svg11.dtd">
<!-- Generated by graphviz version 2.43.0 (0)
 -->
<!-- Title: dmzap_dtr Pages: 1 -->
<svg width="2355pt" height="514pt"
 viewBox="0.00 0.00 2355.00 514.00" xmlns="http://www.w3.org/2000/svg" xmlns:xlink="http://www.w3.org/1999/xlink">
<g id="graph0" class="graph" transform="scale(1 1) rotate(0) translate(4 510)">
<title>dmzap_dtr</title>
<!-- Node1 -->
<g id="node1" class="node">
<title>Node1</title>
<g id="a_node1"><a xlink:title=" ">
<polygon fill="#bfbfbf" stroke="black" points="0,-266.5 0,-285.5 68,-285.5 68,-266.5 0,-266.5"/>
<text text-anchor="middle" x="34" y="-273.5" font-family="Helvetica,sans-Serif" font-size="10.00">dmzap_dtr</text>
</a>
</g>
</g>
<!-- Node2 -->
<g id="node2" class="node">
<title>Node2</title>
<g id="a_node2"><a xlink:href="dm-zap-reclaim_8c.html#a2888a698e4a6d1fc9f7bd19396075721" target="_top" xlink:title=" ">
<polygon fill="none" stroke="black" points="120.5,-323.5 120.5,-342.5 230.5,-342.5 230.5,-323.5 120.5,-323.5"/>
<text text-anchor="middle" x="175.5" y="-330.5" font-family="Helvetica,sans-Serif" font-size="10.00">dmzap_dtr_reclaim</text>
</a>
</g>
</g>
<!-- Node1&#45;&gt;Node2 -->
<g id="edge1" class="edge">
<title>Node1&#45;&gt;Node2</title>
<path fill="none" stroke="midnightblue" d="M49.83,-285.54C63.47,-293.97 84.47,-306.12 104,-314 109.94,-316.4 116.28,-318.59 122.64,-320.56"/>
<polygon fill="midnightblue" stroke="midnightblue" points="121.99,-324.02 132.57,-323.48 123.97,-317.3 121.99,-324.02"/>
</g>
<!-- Node4 -->
<g id="node4" class="node">
<title>Node4</title>
<g id="a_node4"><a xlink:href="dm-zap-map_8c.html#aca7da0a670cd2de834b497d17ba9b4b3" target="_top" xlink:title=" ">
<polygon fill="none" stroke="black" points="125,-285.5 125,-304.5 226,-304.5 226,-285.5 125,-285.5"/>
<text text-anchor="middle" x="175.5" y="-292.5" font-family="Helvetica,sans-Serif" font-size="10.00">dmzap_map_free</text>
</a>
</g>
</g>
<!-- Node1&#45;&gt;Node4 -->
<g id="edge3" class="edge">
<title>Node1&#45;&gt;Node4</title>
<path fill="none" stroke="midnightblue" d="M68.06,-280.5C81.94,-282.39 98.53,-284.65 114.43,-286.82"/>
<polygon fill="midnightblue" stroke="midnightblue" points="114.37,-290.34 124.75,-288.22 115.31,-283.41 114.37,-290.34"/>
</g>
<!-- Node46 -->
<g id="node46" class="node">
<title>Node46</title>
<g id="a_node46"><a xlink:href="dm-zap-target_8c.html#ae9a7ed03498f52d2fa45bae612be84e1" target="_top" xlink:title=" ">
<polygon fill="none" stroke="black" points="104,-247.5 104,-266.5 247,-266.5 247,-247.5 104,-247.5"/>
<text text-anchor="middle" x="175.5" y="-254.5" font-family="Helvetica,sans-Serif" font-size="10.00">dmzap_put_zoned_device</text>
</a>
</g>
</g>
<!-- Node1&#45;&gt;Node46 -->
<g id="edge58" class="edge">
<title>Node1&#45;&gt;Node46</title>
<path fill="none" stroke="midnightblue" d="M68.06,-271.5C76.17,-270.39 85.2,-269.16 94.47,-267.9"/>
<polygon fill="midnightblue" stroke="midnightblue" points="95.17,-271.34 104.61,-266.52 94.23,-264.4 95.17,-271.34"/>
</g>
<!-- Node47 -->
<g id="node47" class="node">
<title>Node47</title>
<g id="a_node47"><a xlink:href="dm-zap-target_8c.html#adac52f0c318e389a9299e6e735146f1b" target="_top" xlink:title=" ">
<polygon fill="none" stroke="black" points="121.5,-209.5 121.5,-228.5 229.5,-228.5 229.5,-209.5 121.5,-209.5"/>
<text text-anchor="middle" x="175.5" y="-216.5" font-family="Helvetica,sans-Serif" font-size="10.00">dmzap_zones_free</text>
</a>
</g>
</g>
<!-- Node1&#45;&gt;Node47 -->
<g id="edge59" class="edge">
<title>Node1&#45;&gt;Node47</title>
<path fill="none" stroke="midnightblue" d="M49.83,-266.46C63.47,-258.03 84.47,-245.88 104,-238 109.94,-235.6 116.28,-233.41 122.64,-231.44"/>
<polygon fill="midnightblue" stroke="midnightblue" points="123.97,-234.7 132.57,-228.52 121.99,-227.98 123.97,-234.7"/>
</g>
<!-- Node3 -->
<g id="node3" class="node">
<title>Node3</title>
<g id="a_node3"><a xlink:href="dm-zap-heap_8c.html#af9e00c0f3299e482603109da9bf29161" target="_top" xlink:title=" ">
<polygon fill="none" stroke="black" points="283,-323.5 283,-342.5 404,-342.5 404,-323.5 283,-323.5"/>
<text text-anchor="middle" x="343.5" y="-330.5" font-family="Helvetica,sans-Serif" font-size="10.00">dmzap_heap_destroy</text>
</a>
</g>
</g>
<!-- Node2&#45;&gt;Node3 -->
<g id="edge2" class="edge">
<title>Node2&#45;&gt;Node3</title>
<path fill="none" stroke="midnightblue" d="M230.85,-333C244.25,-333 258.77,-333 272.78,-333"/>
<polygon fill="midnightblue" stroke="midnightblue" points="272.86,-336.5 282.86,-333 272.86,-329.5 272.86,-336.5"/>
</g>
<!-- Node5 -->
<g id="node5" class="node">
<title>Node5</title>
<g id="a_node5"><a xlink:href="dm-zap-target_8c.html#a43a56808aed8f10e2c0b5c040e478b41" target="_top" xlink:title=" ">
<polygon fill="none" stroke="black" points="305,-285.5 305,-304.5 382,-304.5 382,-285.5 305,-285.5"/>
<text text-anchor="middle" x="343.5" y="-292.5" font-family="Helvetica,sans-Serif" font-size="10.00">dmzap_map</text>
</a>
</g>
</g>
<!-- Node4&#45;&gt;Node5 -->
<g id="edge4" class="edge">
<title>Node4&#45;&gt;Node5</title>
<path fill="none" stroke="midnightblue" d="M226.31,-295C247.97,-295 273.25,-295 294.69,-295"/>
<polygon fill="midnightblue" stroke="midnightblue" points="294.87,-298.5 304.87,-295 294.87,-291.5 294.87,-298.5"/>
</g>
<!-- Node6 -->
<g id="node6" class="node">
<title>Node6</title>
<g id="a_node6"><a xlink:href="dm-zap-target_8c.html#a902c8a19fa6f78d0b655379ebf3544f8" target="_top" xlink:title=" ">
<polygon fill="none" stroke="black" points="452,-361.5 452,-380.5 577,-380.5 577,-361.5 452,-361.5"/>
<text text-anchor="middle" x="514.5" y="-368.5" font-family="Helvetica,sans-Serif" font-size="10.00">dmzap_bdev_is_dying</text>
</a>
</g>
</g>
<!-- Node5&#45;&gt;Node6 -->
<g id="edge5" class="edge">
<title>Node5&#45;&gt;Node6</title>
<path fill="none" stroke="midnightblue" d="M382.28,-303.9C389.79,-306.53 397.39,-309.85 404,-314 423.7,-326.37 419.96,-340.19 440,-352 443.7,-354.18 447.66,-356.12 451.74,-357.83"/>
<polygon fill="midnightblue" stroke="midnightblue" points="450.83,-361.23 461.43,-361.45 453.28,-354.68 450.83,-361.23"/>
</g>
<!-- Node8 -->
<g id="node8" class="node">
<title>Node8</title>
<g id="a_node8"><a xlink:href="dm-zap-target_8c.html#a2310f0fec1559dfa36cc12f76d9c426c" target="_top" xlink:title=" ">
<polygon fill="none" stroke="black" points="461.5,-323.5 461.5,-342.5 567.5,-342.5 567.5,-323.5 461.5,-323.5"/>
<text text-anchor="middle" x="514.5" y="-330.5" font-family="Helvetica,sans-Serif" font-size="10.00">dmzap_init_bioctx</text>
</a>
</g>
</g>
<!-- Node5&#45;&gt;Node8 -->
<g id="edge8" class="edge">
<title>Node5&#45;&gt;Node8</title>
<path fill="none" stroke="midnightblue" d="M382.01,-303.43C405.27,-308.66 435.5,-315.46 461.11,-321.22"/>
<polygon fill="midnightblue" stroke="midnightblue" points="460.52,-324.67 471.04,-323.45 462.05,-317.84 460.52,-324.67"/>
</g>
<!-- Node9 -->
<g id="node9" class="node">
<title>Node9</title>
<g id="a_node9"><a xlink:href="dm-zap-target_8c.html#a91bb5f12809f481c64891e1a3d43c22e" target="_top" xlink:title=" ">
<polygon fill="none" stroke="black" points="440,-190.5 440,-209.5 589,-209.5 589,-190.5 440,-190.5"/>
<text text-anchor="middle" x="514.5" y="-197.5" font-family="Helvetica,sans-Serif" font-size="10.00">dmzap_queue_chunk_work</text>
</a>
</g>
</g>
<!-- Node5&#45;&gt;Node9 -->
<g id="edge9" class="edge">
<title>Node5&#45;&gt;Node9</title>
<path fill="none" stroke="midnightblue" d="M361.63,-285.37C391.32,-268.68 452.48,-234.3 487.45,-214.64"/>
<polygon fill="midnightblue" stroke="midnightblue" points="489.57,-217.47 496.57,-209.52 486.14,-211.37 489.57,-217.47"/>
</g>
<!-- Node7 -->
<g id="node7" class="node">
<title>Node7</title>
<g id="a_node7"><a xlink:href="dm-zap-target_8c.html#a6762b2612cfb1a541d2fecfa420890a9" target="_top" xlink:title=" ">
<polygon fill="none" stroke="black" points="635.5,-361.5 635.5,-380.5 748.5,-380.5 748.5,-361.5 635.5,-361.5"/>
<text text-anchor="middle" x="692" y="-368.5" font-family="Helvetica,sans-Serif" font-size="10.00">dmzap_check_bdev</text>
</a>
</g>
</g>
<!-- Node6&#45;&gt;Node7 -->
<g id="edge6" class="edge">
<title>Node6&#45;&gt;Node7</title>
<path fill="none" stroke="midnightblue" d="M577.37,-364.52C592.84,-364.19 609.48,-364.16 625.12,-364.44"/>
<polygon fill="midnightblue" stroke="midnightblue" points="625.17,-367.94 635.24,-364.67 625.32,-360.94 625.17,-367.94"/>
</g>
<!-- Node7&#45;&gt;Node6 -->
<g id="edge7" class="edge">
<title>Node7&#45;&gt;Node6</title>
<path fill="none" stroke="midnightblue" d="M635.24,-377.33C620.13,-377.74 603.56,-377.85 587.68,-377.65"/>
<polygon fill="midnightblue" stroke="midnightblue" points="587.43,-374.15 577.37,-377.48 587.31,-381.15 587.43,-374.15"/>
</g>
<!-- Node10 -->
<g id="node10" class="node">
<title>Node10</title>
<g id="a_node10"><a xlink:href="dm-zap-target_8c.html#a8b7bb265a5ab0376e0b178ec8ca02fc2" target="_top" xlink:title=" ">
<polygon fill="none" stroke="black" points="632.5,-133.5 632.5,-152.5 751.5,-152.5 751.5,-133.5 632.5,-133.5"/>
<text text-anchor="middle" x="692" y="-140.5" font-family="Helvetica,sans-Serif" font-size="10.00">dmzap_chunk_work_</text>
</a>
</g>
</g>
<!-- Node9&#45;&gt;Node10 -->
<g id="edge10" class="edge">
<title>Node9&#45;&gt;Node10</title>
<path fill="none" stroke="midnightblue" d="M544.87,-190.46C574.23,-180.92 619.55,-166.21 651.93,-155.69"/>
<polygon fill="midnightblue" stroke="midnightblue" points="653.1,-158.99 661.53,-152.57 650.94,-152.33 653.1,-158.99"/>
</g>
<!-- Node40 -->
<g id="node40" class="node">
<title>Node40</title>
<g id="a_node40"><a xlink:href="dm-zap-reclaim_8c.html#a488830d87c9574425c57b956ef69c1d1" target="_top" xlink:title=" ">
<polygon fill="none" stroke="black" points="968,-190.5 968,-209.5 1102,-209.5 1102,-190.5 968,-190.5"/>
<text text-anchor="middle" x="1035" y="-197.5" font-family="Helvetica,sans-Serif" font-size="10.00">dmzap_reclaim_bio_acc</text>
</a>
</g>
</g>
<!-- Node9&#45;&gt;Node40 -->
<g id="edge57" class="edge">
<title>Node9&#45;&gt;Node40</title>
<path fill="none" stroke="midnightblue" d="M589.24,-200C686.99,-200 858.63,-200 957.67,-200"/>
<polygon fill="midnightblue" stroke="midnightblue" points="957.91,-203.5 967.91,-200 957.91,-196.5 957.91,-203.5"/>
</g>
<!-- Node45 -->
<g id="node45" class="node">
<title>Node45</title>
<g id="a_node45"><a xlink:href="dm-zap-target_8c.html#acab4a77aede7e4b123b9f311c788662c" target="_top" xlink:title=" ">
<polygon fill="none" stroke="black" points="625,-209.5 625,-228.5 759,-228.5 759,-209.5 625,-209.5"/>
<text text-anchor="middle" x="692" y="-216.5" font-family="Helvetica,sans-Serif" font-size="10.00">dmzap_get_chunk_work</text>
</a>
</g>
</g>
<!-- Node9&#45;&gt;Node45 -->
<g id="edge56" class="edge">
<title>Node9&#45;&gt;Node45</title>
<path fill="none" stroke="midnightblue" d="M589.16,-207.98C597.57,-208.88 606.15,-209.81 614.58,-210.73"/>
<polygon fill="midnightblue" stroke="midnightblue" points="614.47,-214.23 624.78,-211.83 615.22,-207.28 614.47,-214.23"/>
</g>
<!-- Node11 -->
<g id="node11" class="node">
<title>Node11</title>
<g id="a_node11"><a xlink:href="dm-zap-target_8c.html#ac361600a0ef24d3abe058b76ee4a7c43" target="_top" xlink:title=" ">
<polygon fill="none" stroke="black" points="808,-95.5 808,-114.5 916,-114.5 916,-95.5 808,-95.5"/>
<text text-anchor="middle" x="862" y="-102.5" font-family="Helvetica,sans-Serif" font-size="10.00">dmzap_handle_bio</text>
</a>
</g>
</g>
<!-- Node10&#45;&gt;Node11 -->
<g id="edge11" class="edge">
<title>Node10&#45;&gt;Node11</title>
<path fill="none" stroke="midnightblue" d="M735.39,-133.41C757.76,-128.35 785.4,-122.1 809.05,-116.75"/>
<polygon fill="midnightblue" stroke="midnightblue" points="809.93,-120.14 818.91,-114.52 808.39,-113.31 809.93,-120.14"/>
</g>
<!-- Node44 -->
<g id="node44" class="node">
<title>Node44</title>
<g id="a_node44"><a xlink:href="dm-zap-target_8c.html#ad13adf339e55f703d1843f2935ac10ce" target="_top" xlink:title=" ">
<polygon fill="none" stroke="black" points="795,-133.5 795,-152.5 929,-152.5 929,-133.5 795,-133.5"/>
<text text-anchor="middle" x="862" y="-140.5" font-family="Helvetica,sans-Serif" font-size="10.00">dmzap_put_chunk_work</text>
</a>
</g>
</g>
<!-- Node10&#45;&gt;Node44 -->
<g id="edge55" class="edge">
<title>Node10&#45;&gt;Node44</title>
<path fill="none" stroke="midnightblue" d="M751.76,-143C762.41,-143 773.65,-143 784.72,-143"/>
<polygon fill="midnightblue" stroke="midnightblue" points="784.81,-146.5 794.81,-143 784.81,-139.5 784.81,-146.5"/>
</g>
<!-- Node12 -->
<g id="node12" class="node">
<title>Node12</title>
<g id="a_node12"><a xlink:href="dm-zap-target_8c.html#a37a4fefdb9df57c7c1374e7abcd67350" target="_top" xlink:title=" ">
<polygon fill="none" stroke="black" points="1459,-114.5 1459,-133.5 1561,-133.5 1561,-114.5 1459,-114.5"/>
<text text-anchor="middle" x="1510" y="-121.5" font-family="Helvetica,sans-Serif" font-size="10.00">dmzap_bio_endio</text>
</a>
</g>
</g>
<!-- Node11&#45;&gt;Node12 -->
<g id="edge12" class="edge">
<title>Node11&#45;&gt;Node12</title>
<path fill="none" stroke="midnightblue" d="M916.14,-106.56C1035.18,-110.06 1322.63,-118.52 1448.39,-122.22"/>
<polygon fill="midnightblue" stroke="midnightblue" points="1448.5,-125.72 1458.6,-122.52 1448.71,-118.73 1448.5,-125.72"/>
</g>
<!-- Node13 -->
<g id="node13" class="node">
<title>Node13</title>
<g id="a_node13"><a xlink:href="dm-zap-conv-io_8c.html#a7925b771905b762d867cc036018d80e6" target="_top" xlink:title=" ">
<polygon fill="none" stroke="black" points="982.5,-152.5 982.5,-171.5 1087.5,-171.5 1087.5,-152.5 982.5,-152.5"/>
<text text-anchor="middle" x="1035" y="-159.5" font-family="Helvetica,sans-Serif" font-size="10.00">dmzap_conv_read</text>
</a>
</g>
</g>
<!-- Node11&#45;&gt;Node13 -->
<g id="edge13" class="edge">
<title>Node11&#45;&gt;Node13</title>
<path fill="none" stroke="midnightblue" d="M898.46,-114.57C908.4,-117.42 919.17,-120.68 929,-124 945.27,-129.49 948.89,-132.07 965,-138 975.1,-141.72 986.09,-145.61 996.27,-149.15"/>
<polygon fill="midnightblue" stroke="midnightblue" points="995.12,-152.46 1005.72,-152.42 997.41,-145.84 995.12,-152.46"/>
</g>
<!-- Node38 -->
<g id="node38" class="node">
<title>Node38</title>
<g id="a_node38"><a xlink:href="dm-zap-conv-io_8c.html#ad1f33cfd745c84f6c4b5d921a48b88ba" target="_top" xlink:title=" ">
<polygon fill="none" stroke="black" points="981,-76.5 981,-95.5 1089,-95.5 1089,-76.5 981,-76.5"/>
<text text-anchor="middle" x="1035" y="-83.5" font-family="Helvetica,sans-Serif" font-size="10.00">dmzap_conv_write</text>
</a>
</g>
</g>
<!-- Node11&#45;&gt;Node38 -->
<g id="edge47" class="edge">
<title>Node11&#45;&gt;Node38</title>
<path fill="none" stroke="midnightblue" d="M916.17,-99.09C933.46,-97.17 952.82,-95.02 970.77,-93.03"/>
<polygon fill="midnightblue" stroke="midnightblue" points="971.31,-96.49 980.86,-91.9 970.54,-89.53 971.31,-96.49"/>
</g>
<!-- Node39 -->
<g id="node39" class="node">
<title>Node39</title>
<g id="a_node39"><a xlink:href="dm-zap-conv-io_8c.html#a14348d55390f7ef30faf83438cdcb165" target="_top" xlink:title=" ">
<polygon fill="none" stroke="black" points="971,-0.5 971,-19.5 1099,-19.5 1099,-0.5 971,-0.5"/>
<text text-anchor="middle" x="1035" y="-7.5" font-family="Helvetica,sans-Serif" font-size="10.00">dmzap_handle_discard</text>
</a>
</g>
</g>
<!-- Node11&#45;&gt;Node39 -->
<g id="edge50" class="edge">
<title>Node11&#45;&gt;Node39</title>
<path fill="none" stroke="midnightblue" d="M873.15,-95.36C890.57,-79.33 927.9,-47.13 965,-29 969.69,-26.71 974.71,-24.65 979.81,-22.82"/>
<polygon fill="midnightblue" stroke="midnightblue" points="981.26,-26.03 989.67,-19.58 979.07,-19.38 981.26,-26.03"/>
</g>
<!-- Node11&#45;&gt;Node40 -->
<g id="edge51" class="edge">
<title>Node11&#45;&gt;Node40</title>
<path fill="none" stroke="midnightblue" d="M911.81,-114.6C917.94,-117.05 923.85,-120.13 929,-124 952.96,-141.99 940.93,-163.15 965,-181 967.51,-182.86 970.2,-184.55 973,-186.06"/>
<polygon fill="midnightblue" stroke="midnightblue" points="971.73,-189.33 982.27,-190.37 974.67,-182.98 971.73,-189.33"/>
</g>
<!-- Node41 -->
<g id="node41" class="node">
<title>Node41</title>
<g id="a_node41"><a xlink:href="dm-zap-reclaim_8c.html#a6c39a0bcf16e14b6e8150d5f03931f7a" target="_top" xlink:title=" ">
<polygon fill="none" stroke="black" points="965,-38.5 965,-57.5 1105,-57.5 1105,-38.5 965,-38.5"/>
<text text-anchor="middle" x="1035" y="-45.5" font-family="Helvetica,sans-Serif" font-size="10.00">dmzap_schedule_reclaim</text>
</a>
</g>
</g>
<!-- Node11&#45;&gt;Node41 -->
<g id="edge52" class="edge">
<title>Node11&#45;&gt;Node41</title>
<path fill="none" stroke="midnightblue" d="M886.7,-95.5C907.24,-87.42 937.85,-75.78 965,-67 972.15,-64.69 979.78,-62.41 987.25,-60.27"/>
<polygon fill="midnightblue" stroke="midnightblue" points="988.25,-63.63 996.94,-57.56 986.37,-56.89 988.25,-63.63"/>
</g>
<!-- Node14 -->
<g id="node14" class="node">
<title>Node14</title>
<g id="a_node14"><a xlink:href="dm-zap-map_8c.html#a96fe7def7b6b64c1de080f5b6120bbc7" target="_top" xlink:title=" ">
<polygon fill="none" stroke="black" points="1148.5,-228.5 1148.5,-247.5 1262.5,-247.5 1262.5,-228.5 1148.5,-228.5"/>
<text text-anchor="middle" x="1205.5" y="-235.5" font-family="Helvetica,sans-Serif" font-size="10.00">dmzap_map_lookup</text>
</a>
</g>
</g>
<!-- Node13&#45;&gt;Node14 -->
<g id="edge14" class="edge">
<title>Node13&#45;&gt;Node14</title>
<path fill="none" stroke="midnightblue" d="M1077.44,-171.59C1086.66,-174.22 1096.28,-177.37 1105,-181 1132.61,-192.49 1162.07,-210.12 1181.71,-222.73"/>
<polygon fill="midnightblue" stroke="midnightblue" points="1179.97,-225.77 1190.26,-228.3 1183.79,-219.91 1179.97,-225.77"/>
</g>
<!-- Node15 -->
<g id="node15" class="node">
<title>Node15</title>
<g id="a_node15"><a xlink:href="dm-zap-conv-io_8c.html#a48bbd468ae04a1786fa70e9bac23fcb4" target="_top" xlink:title=" ">
<polygon fill="none" stroke="black" points="1151,-152.5 1151,-171.5 1260,-171.5 1260,-152.5 1151,-152.5"/>
<text text-anchor="middle" x="1205.5" y="-159.5" font-family="Helvetica,sans-Serif" font-size="10.00">dmzap_submit_bio</text>
</a>
</g>
</g>
<!-- Node13&#45;&gt;Node15 -->
<g id="edge16" class="edge">
<title>Node13&#45;&gt;Node15</title>
<path fill="none" stroke="midnightblue" d="M1087.93,-162C1104.66,-162 1123.4,-162 1140.88,-162"/>
<polygon fill="midnightblue" stroke="midnightblue" points="1140.99,-165.5 1150.99,-162 1140.99,-158.5 1140.99,-165.5"/>
</g>
<!-- Node14&#45;&gt;Node5 -->
<g id="edge15" class="edge">
<title>Node14&#45;&gt;Node5</title>
<path fill="none" stroke="midnightblue" d="M1148.35,-243.04C1080.73,-248.67 963.65,-257 863,-257 691,-257 691,-257 691,-257 583.72,-257 458.87,-275.22 392.22,-286.43"/>
<polygon fill="midnightblue" stroke="midnightblue" points="391.31,-283.03 382.04,-288.16 392.48,-289.93 391.31,-283.03"/>
</g>
<!-- Node16 -->
<g id="node16" class="node">
<title>Node16</title>
<g id="a_node16"><a xlink:href="dm-zap-conv-io_8c.html#aafacfd036ebfe4dd20e8daa81f2578ae" target="_top" xlink:title=" ">
<polygon fill="none" stroke="black" points="1306,-152.5 1306,-171.5 1419,-171.5 1419,-152.5 1306,-152.5"/>
<text text-anchor="middle" x="1362.5" y="-159.5" font-family="Helvetica,sans-Serif" font-size="10.00">dmzap_clone_endio</text>
</a>
</g>
</g>
<!-- Node15&#45;&gt;Node16 -->
<g id="edge17" class="edge">
<title>Node15&#45;&gt;Node16</title>
<path fill="none" stroke="midnightblue" d="M1260.28,-162C1271.71,-162 1283.9,-162 1295.71,-162"/>
<polygon fill="midnightblue" stroke="midnightblue" points="1295.98,-165.5 1305.98,-162 1295.98,-158.5 1295.98,-165.5"/>
</g>
<!-- Node16&#45;&gt;Node12 -->
<g id="edge46" class="edge">
<title>Node16&#45;&gt;Node12</title>
<path fill="none" stroke="midnightblue" d="M1400.22,-152.41C1419.16,-147.46 1442.46,-141.38 1462.63,-136.11"/>
<polygon fill="midnightblue" stroke="midnightblue" points="1463.76,-139.43 1472.55,-133.52 1461.99,-132.66 1463.76,-139.43"/>
</g>
<!-- Node17 -->
<g id="node17" class="node">
<title>Node17</title>
<g id="a_node17"><a xlink:href="dm-zap-conv-io_8c.html#a9835a3452c20220ed5562388c890a2e5" target="_top" xlink:title=" ">
<polygon fill="none" stroke="black" points="1455,-152.5 1455,-171.5 1565,-171.5 1565,-152.5 1455,-152.5"/>
<text text-anchor="middle" x="1510" y="-159.5" font-family="Helvetica,sans-Serif" font-size="10.00">dmzap_bio_end_wr</text>
</a>
</g>
</g>
<!-- Node16&#45;&gt;Node17 -->
<g id="edge18" class="edge">
<title>Node16&#45;&gt;Node17</title>
<path fill="none" stroke="midnightblue" d="M1419.34,-162C1427.66,-162 1436.29,-162 1444.76,-162"/>
<polygon fill="midnightblue" stroke="midnightblue" points="1444.99,-165.5 1454.99,-162 1444.99,-158.5 1444.99,-165.5"/>
</g>
<!-- Node18 -->
<g id="node18" class="node">
<title>Node18</title>
<g id="a_node18"><a xlink:href="dm-zap-target_8c.html#aaa786e62327b400a3298ebecfef66a50" target="_top" xlink:title=" ">
<polygon fill="none" stroke="black" points="1610,-86.5 1610,-105.5 1723,-105.5 1723,-86.5 1610,-86.5"/>
<text text-anchor="middle" x="1666.5" y="-93.5" font-family="Helvetica,sans-Serif" font-size="10.00">dmzap_get_seq_wp</text>
</a>
</g>
</g>
<!-- Node17&#45;&gt;Node18 -->
<g id="edge19" class="edge">
<title>Node17&#45;&gt;Node18</title>
<path fill="none" stroke="midnightblue" d="M1539.78,-152.47C1547.99,-149.59 1556.9,-146.31 1565,-143 1589.82,-132.86 1617.37,-119.85 1637.34,-110.09"/>
<polygon fill="midnightblue" stroke="midnightblue" points="1639.06,-113.14 1646.48,-105.58 1635.97,-106.86 1639.06,-113.14"/>
</g>
<!-- Node19 -->
<g id="node19" class="node">
<title>Node19</title>
<g id="a_node19"><a xlink:href="dm-zap-map_8c.html#af559eb37c90d70f6ec1b3a821f3c05ea" target="_top" xlink:title=" ">
<polygon fill="none" stroke="black" points="1608.5,-285.5 1608.5,-304.5 1724.5,-304.5 1724.5,-285.5 1608.5,-285.5"/>
<text text-anchor="middle" x="1666.5" y="-292.5" font-family="Helvetica,sans-Serif" font-size="10.00">dmzap_map_update</text>
</a>
</g>
</g>
<!-- Node17&#45;&gt;Node19 -->
<g id="edge20" class="edge">
<title>Node17&#45;&gt;Node19</title>
<path fill="none" stroke="midnightblue" d="M1522.11,-171.57C1548.15,-193.98 1613.39,-250.14 1646.13,-278.32"/>
<polygon fill="midnightblue" stroke="midnightblue" points="1644.21,-281.29 1654.07,-285.16 1648.78,-275.99 1644.21,-281.29"/>
</g>
<!-- Node31 -->
<g id="node31" class="node">
<title>Node31</title>
<g id="a_node31"><a xlink:href="dm-zap-conv-io_8c.html#ade4ebe17a36bd3a458a6acfbebe61b26" target="_top" xlink:title=" ">
<polygon fill="none" stroke="black" points="1601,-143.5 1601,-162.5 1732,-162.5 1732,-143.5 1601,-143.5"/>
<text text-anchor="middle" x="1666.5" y="-150.5" font-family="Helvetica,sans-Serif" font-size="10.00">dmzap_update_seq_wp</text>
</a>
</g>
</g>
<!-- Node17&#45;&gt;Node31 -->
<g id="edge35" class="edge">
<title>Node17&#45;&gt;Node31</title>
<path fill="none" stroke="midnightblue" d="M1565.04,-158.85C1573.36,-158.37 1582.07,-157.86 1590.74,-157.35"/>
<polygon fill="midnightblue" stroke="midnightblue" points="1591.1,-160.84 1600.88,-156.76 1590.69,-153.85 1591.1,-160.84"/>
</g>
<!-- Node19&#45;&gt;Node5 -->
<g id="edge34" class="edge">
<title>Node19&#45;&gt;Node5</title>
<path fill="none" stroke="midnightblue" d="M1608.45,-295C1547.72,-295 1448.83,-295 1363.5,-295 691,-295 691,-295 691,-295 584.36,-295 459.27,-295 392.4,-295"/>
<polygon fill="midnightblue" stroke="midnightblue" points="392.19,-291.5 382.19,-295 392.19,-298.5 392.19,-291.5"/>
</g>
<!-- Node20 -->
<g id="node20" class="node">
<title>Node20</title>
<g id="a_node20"><a xlink:href="dm-zap-reclaim_8c.html#a3cf8ab902c6292cdb2dfe84d10ffd11d" target="_top" xlink:title=" ">
<polygon fill="none" stroke="black" points="1768,-311.5 1768,-330.5 1908,-330.5 1908,-311.5 1768,-311.5"/>
<text text-anchor="middle" x="1838" y="-318.5" font-family="Helvetica,sans-Serif" font-size="10.00">dmzap_invalidate_blocks</text>
</a>
</g>
</g>
<!-- Node19&#45;&gt;Node20 -->
<g id="edge21" class="edge">
<title>Node19&#45;&gt;Node20</title>
<path fill="none" stroke="midnightblue" d="M1724.88,-303.8C1737.74,-305.77 1751.54,-307.89 1764.91,-309.94"/>
<polygon fill="midnightblue" stroke="midnightblue" points="1764.61,-313.44 1775.03,-311.49 1765.67,-306.52 1764.61,-313.44"/>
</g>
<!-- Node21 -->
<g id="node21" class="node">
<title>Node21</title>
<g id="a_node21"><a xlink:href="dm-zap-reclaim_8c.html#a853ccadd2f559cc40b206dc91029a833" target="_top" xlink:title=" ">
<polygon fill="none" stroke="black" points="1956.5,-330.5 1956.5,-349.5 2081.5,-349.5 2081.5,-330.5 1956.5,-330.5"/>
<text text-anchor="middle" x="2019" y="-337.5" font-family="Helvetica,sans-Serif" font-size="10.00">dmzap_block2zone_id</text>
</a>
</g>
</g>
<!-- Node20&#45;&gt;Node21 -->
<g id="edge22" class="edge">
<title>Node20&#45;&gt;Node21</title>
<path fill="none" stroke="midnightblue" d="M1908.21,-328.35C1920.7,-329.67 1933.76,-331.06 1946.33,-332.39"/>
<polygon fill="midnightblue" stroke="midnightblue" points="1945.97,-335.87 1956.28,-333.45 1946.71,-328.91 1945.97,-335.87"/>
</g>
<!-- Node22 -->
<g id="node22" class="node">
<title>Node22</title>
<g id="a_node22"><a xlink:href="dm-zap-reclaim_8c.html#ada1e1efbb5a5501000a7a1aad639107d" target="_top" xlink:title=" ">
<polygon fill="none" stroke="black" points="1957.5,-292.5 1957.5,-311.5 2080.5,-311.5 2080.5,-292.5 1957.5,-292.5"/>
<text text-anchor="middle" x="2019" y="-299.5" font-family="Helvetica,sans-Serif" font-size="10.00">dmzap_calc_cb_value</text>
</a>
</g>
</g>
<!-- Node20&#45;&gt;Node22 -->
<g id="edge23" class="edge">
<title>Node20&#45;&gt;Node22</title>
<path fill="none" stroke="midnightblue" d="M1908.21,-313.65C1921.01,-312.29 1934.41,-310.87 1947.26,-309.51"/>
<polygon fill="midnightblue" stroke="midnightblue" points="1947.86,-312.96 1957.43,-308.43 1947.12,-306 1947.86,-312.96"/>
</g>
<!-- Node23 -->
<g id="node23" class="node">
<title>Node23</title>
<g id="a_node23"><a xlink:href="dm-zap-reclaim_8c.html#a5d6e74d33d26b2dc1f932e7a025111ea" target="_top" xlink:title=" ">
<polygon fill="none" stroke="black" points="1955,-254.5 1955,-273.5 2083,-273.5 2083,-254.5 1955,-254.5"/>
<text text-anchor="middle" x="2019" y="-261.5" font-family="Helvetica,sans-Serif" font-size="10.00">dmzap_calc_shift_time</text>
</a>
</g>
</g>
<!-- Node20&#45;&gt;Node23 -->
<g id="edge24" class="edge">
<title>Node20&#45;&gt;Node23</title>
<path fill="none" stroke="midnightblue" d="M1863.38,-311.42C1884.52,-303.3 1916.03,-291.63 1944,-283 1951.75,-280.61 1960.02,-278.28 1968.12,-276.11"/>
<polygon fill="midnightblue" stroke="midnightblue" points="1969.08,-279.48 1977.86,-273.56 1967.3,-272.71 1969.08,-279.48"/>
</g>
<!-- Node24 -->
<g id="node24" class="node">
<title>Node24</title>
<g id="a_node24"><a xlink:href="dm-zap-heap_8c.html#a33fc775872ac42f1097fb2a531580d6c" target="_top" xlink:title=" ">
<polygon fill="none" stroke="black" points="1960,-467.5 1960,-486.5 2078,-486.5 2078,-467.5 1960,-467.5"/>
<text text-anchor="middle" x="2019" y="-474.5" font-family="Helvetica,sans-Serif" font-size="10.00">dmzap_heap_update</text>
</a>
</g>
</g>
<!-- Node20&#45;&gt;Node24 -->
<g id="edge25" class="edge">
<title>Node20&#45;&gt;Node24</title>
<path fill="none" stroke="midnightblue" d="M1843.56,-330.74C1855.89,-355.99 1892.5,-423.96 1944,-458 1947.12,-460.06 1950.44,-461.9 1953.89,-463.53"/>
<polygon fill="midnightblue" stroke="midnightblue" points="1952.69,-466.82 1963.26,-467.42 1955.37,-460.36 1952.69,-466.82"/>
</g>
<!-- Node28 -->
<g id="node28" class="node">
<title>Node28</title>
<g id="a_node28"><a xlink:href="dm-zap-reclaim_8c.html#a3731f00c9748741be7af5006fe21b559" target="_top" xlink:title=" ">
<polygon fill="none" stroke="black" points="1956,-205 1956,-235 2082,-235 2082,-205 1956,-205"/>
<text text-anchor="start" x="1964" y="-223" font-family="Helvetica,sans-Serif" font-size="10.00">dmzap_rb_insert_zone</text>
<text text-anchor="middle" x="2019" y="-212" font-family="Helvetica,sans-Serif" font-size="10.00">_class_1</text>
</a>
</g>
</g>
<!-- Node20&#45;&gt;Node28 -->
<g id="edge31" class="edge">
<title>Node20&#45;&gt;Node28</title>
<path fill="none" stroke="midnightblue" d="M1849.91,-311.36C1868.23,-295.61 1906.8,-264.19 1944,-245 1948.22,-242.82 1952.67,-240.77 1957.21,-238.86"/>
<polygon fill="midnightblue" stroke="midnightblue" points="1958.62,-242.07 1966.61,-235.11 1956.03,-235.56 1958.62,-242.07"/>
</g>
<!-- Node29 -->
<g id="node29" class="node">
<title>Node29</title>
<g id="a_node29"><a xlink:href="dm-zap-reclaim_8c.html#ae87b59374b0a3319284ea4cc0d1ca5d3" target="_top" xlink:title=" ">
<polygon fill="none" stroke="black" points="1955.5,-418 1955.5,-448 2082.5,-448 2082.5,-418 1955.5,-418"/>
<text text-anchor="start" x="1963.5" y="-436" font-family="Helvetica,sans-Serif" font-size="10.00">dmzap_unassign_zone</text>
<text text-anchor="middle" x="2019" y="-425" font-family="Helvetica,sans-Serif" font-size="10.00">_from_class_0</text>
</a>
</g>
</g>
<!-- Node20&#45;&gt;Node29 -->
<g id="edge32" class="edge">
<title>Node20&#45;&gt;Node29</title>
<path fill="none" stroke="midnightblue" d="M1847.91,-330.6C1864.96,-348.44 1904.05,-386.88 1944,-409 1947.2,-410.77 1950.55,-412.44 1953.99,-414"/>
<polygon fill="midnightblue" stroke="midnightblue" points="1952.66,-417.24 1963.23,-417.9 1955.38,-410.79 1952.66,-417.24"/>
</g>
<!-- Node30 -->
<g id="node30" class="node">
<title>Node30</title>
<g id="a_node30"><a xlink:href="dm-zap-reclaim_8c.html#a9c515d3ce4d889f383f47bbe4bdf9fef" target="_top" xlink:title=" ">
<polygon fill="none" stroke="black" points="1955.5,-369 1955.5,-399 2082.5,-399 2082.5,-369 1955.5,-369"/>
<text text-anchor="start" x="1963.5" y="-387" font-family="Helvetica,sans-Serif" font-size="10.00">dmzap_unassign_zone</text>
<text text-anchor="middle" x="2019" y="-376" font-family="Helvetica,sans-Serif" font-size="10.00">_from_class_1</text>
</a>
</g>
</g>
<!-- Node20&#45;&gt;Node30 -->
<g id="edge33" class="edge">
<title>Node20&#45;&gt;Node30</title>
<path fill="none" stroke="midnightblue" d="M1864.84,-330.52C1886.06,-338.31 1916.92,-349.53 1944,-359 1950.28,-361.2 1956.87,-363.47 1963.42,-365.71"/>
<polygon fill="midnightblue" stroke="midnightblue" points="1962.35,-369.04 1972.94,-368.95 1964.61,-362.41 1962.35,-369.04"/>
</g>
<!-- Node25 -->
<g id="node25" class="node">
<title>Node25</title>
<g id="a_node25"><a xlink:href="dm-zap-heap_8c.html#a119d1a49869fe299372ea1c0d38d42b2" target="_top" xlink:title=" ">
<polygon fill="none" stroke="black" points="2130,-486.5 2130,-505.5 2230,-505.5 2230,-486.5 2130,-486.5"/>
<text text-anchor="middle" x="2180" y="-493.5" font-family="Helvetica,sans-Serif" font-size="10.00">heap_filter_down</text>
</a>
</g>
</g>
<!-- Node24&#45;&gt;Node25 -->
<g id="edge26" class="edge">
<title>Node24&#45;&gt;Node25</title>
<path fill="none" stroke="midnightblue" d="M2078.3,-483.97C2091.79,-485.58 2106.16,-487.3 2119.69,-488.91"/>
<polygon fill="midnightblue" stroke="midnightblue" points="2119.51,-492.42 2129.85,-490.13 2120.34,-485.46 2119.51,-492.42"/>
</g>
<!-- Node26 -->
<g id="node26" class="node">
<title>Node26</title>
<g id="a_node26"><a xlink:href="dm-zap-heap_8c.html#af3905b55203580ed6ff74063f158db73" target="_top" xlink:title=" ">
<polygon fill="none" stroke="black" points="2266,-448.5 2266,-467.5 2347,-467.5 2347,-448.5 2266,-448.5"/>
<text text-anchor="middle" x="2306.5" y="-455.5" font-family="Helvetica,sans-Serif" font-size="10.00">updated_cwa</text>
</a>
</g>
</g>
<!-- Node24&#45;&gt;Node26 -->
<g id="edge30" class="edge">
<title>Node24&#45;&gt;Node26</title>
<path fill="none" stroke="midnightblue" d="M2078.12,-473.13C2130.33,-469.66 2206.17,-464.61 2255.67,-461.32"/>
<polygon fill="midnightblue" stroke="midnightblue" points="2256.07,-464.8 2265.81,-460.64 2255.6,-457.81 2256.07,-464.8"/>
</g>
<!-- Node27 -->
<g id="node27" class="node">
<title>Node27</title>
<g id="a_node27"><a xlink:href="dm-zap-heap_8c.html#a3b3766ed922ee8d7aeab183d362c7ada" target="_top" xlink:title=" ">
<polygon fill="none" stroke="black" points="2137,-410.5 2137,-429.5 2223,-429.5 2223,-410.5 2137,-410.5"/>
<text text-anchor="middle" x="2180" y="-417.5" font-family="Helvetica,sans-Serif" font-size="10.00">heap_filter_up</text>
</a>
</g>
</g>
<!-- Node24&#45;&gt;Node27 -->
<g id="edge28" class="edge">
<title>Node24&#45;&gt;Node27</title>
<path fill="none" stroke="midnightblue" d="M2062.24,-467.47C2072.72,-464.74 2083.86,-461.54 2094,-458 2113.52,-451.19 2134.75,-441.7 2151.11,-433.9"/>
<polygon fill="midnightblue" stroke="midnightblue" points="2152.65,-437.05 2160.13,-429.55 2149.61,-430.74 2152.65,-437.05"/>
</g>
<!-- Node25&#45;&gt;Node26 -->
<g id="edge27" class="edge">
<title>Node25&#45;&gt;Node26</title>
<path fill="none" stroke="midnightblue" d="M2212.42,-486.41C2228.19,-481.6 2247.51,-475.7 2264.44,-470.53"/>
<polygon fill="midnightblue" stroke="midnightblue" points="2265.55,-473.85 2274.09,-467.59 2263.51,-467.16 2265.55,-473.85"/>
</g>
<!-- Node27&#45;&gt;Node26 -->
<g id="edge29" class="edge">
<title>Node27&#45;&gt;Node26</title>
<path fill="none" stroke="midnightblue" d="M2212.42,-429.59C2228.19,-434.4 2247.51,-440.3 2264.44,-445.47"/>
<polygon fill="midnightblue" stroke="midnightblue" points="2263.51,-448.84 2274.09,-448.41 2265.55,-442.15 2263.51,-448.84"/>
</g>
<!-- Node32 -->
<g id="node32" class="node">
<title>Node32</title>
<g id="a_node32"><a xlink:href="dm-zap-reclaim_8c.html#a0e7b82ed38aa8c883bf91a98016b0de3" target="_top" xlink:title=" ">
<polygon fill="none" stroke="black" points="1773,-205 1773,-235 1903,-235 1903,-205 1773,-205"/>
<text text-anchor="start" x="1781" y="-223" font-family="Helvetica,sans-Serif" font-size="10.00">dmzap_assign_zone_to</text>
<text text-anchor="middle" x="1838" y="-212" font-family="Helvetica,sans-Serif" font-size="10.00">_reclaim_class</text>
</a>
</g>
</g>
<!-- Node31&#45;&gt;Node32 -->
<g id="edge36" class="edge">
<title>Node31&#45;&gt;Node32</title>
<path fill="none" stroke="midnightblue" d="M1691.79,-162.6C1717.17,-172.63 1757.66,-188.64 1789.44,-201.2"/>
<polygon fill="midnightblue" stroke="midnightblue" points="1788.41,-204.56 1799,-204.98 1790.98,-198.05 1788.41,-204.56"/>
</g>
<!-- Node34 -->
<g id="node34" class="node">
<title>Node34</title>
<g id="a_node34"><a xlink:href="dm-zap-reclaim_8c.html#a4cc7efd524ee49f24fd2bf2e7f1bbbd1" target="_top" xlink:title=" ">
<polygon fill="none" stroke="black" points="1768.5,-79.5 1768.5,-98.5 1907.5,-98.5 1907.5,-79.5 1768.5,-79.5"/>
<text text-anchor="middle" x="1838" y="-86.5" font-family="Helvetica,sans-Serif" font-size="10.00">dmzap_calc_p_free_zone</text>
</a>
</g>
</g>
<!-- Node31&#45;&gt;Node34 -->
<g id="edge41" class="edge">
<title>Node31&#45;&gt;Node34</title>
<path fill="none" stroke="midnightblue" d="M1686.41,-143.49C1706.35,-133.71 1738.85,-118.47 1768,-108 1774.52,-105.66 1781.48,-103.43 1788.36,-101.39"/>
<polygon fill="midnightblue" stroke="midnightblue" points="1789.7,-104.65 1798.35,-98.53 1787.78,-97.92 1789.7,-104.65"/>
</g>
<!-- Node35 -->
<g id="node35" class="node">
<title>Node35</title>
<g id="a_node35"><a xlink:href="dm-zap-heap_8c.html#a5f1f3e1001107290c155521d7f70d578" target="_top" xlink:title=" ">
<polygon fill="none" stroke="black" points="1782,-117.5 1782,-136.5 1894,-136.5 1894,-117.5 1782,-117.5"/>
<text text-anchor="middle" x="1838" y="-124.5" font-family="Helvetica,sans-Serif" font-size="10.00">dmzap_heap_insert</text>
</a>
</g>
</g>
<!-- Node31&#45;&gt;Node35 -->
<g id="edge42" class="edge">
<title>Node31&#45;&gt;Node35</title>
<path fill="none" stroke="midnightblue" d="M1729.65,-143.47C1743.41,-141.36 1758.03,-139.11 1771.91,-136.98"/>
<polygon fill="midnightblue" stroke="midnightblue" points="1772.5,-140.43 1781.86,-135.46 1771.44,-133.52 1772.5,-140.43"/>
</g>
<!-- Node32&#45;&gt;Node22 -->
<g id="edge38" class="edge">
<title>Node32&#45;&gt;Node22</title>
<path fill="none" stroke="midnightblue" d="M1860.15,-235.2C1880.69,-249.35 1913.21,-270.13 1944,-283 1949.86,-285.45 1956.12,-287.65 1962.43,-289.6"/>
<polygon fill="midnightblue" stroke="midnightblue" points="1961.74,-293.05 1972.32,-292.48 1963.69,-286.33 1961.74,-293.05"/>
</g>
<!-- Node32&#45;&gt;Node23 -->
<g id="edge39" class="edge">
<title>Node32&#45;&gt;Node23</title>
<path fill="none" stroke="midnightblue" d="M1900.1,-235.02C1922.75,-240.59 1948.1,-246.82 1969.47,-252.07"/>
<polygon fill="midnightblue" stroke="midnightblue" points="1968.76,-255.5 1979.3,-254.49 1970.43,-248.7 1968.76,-255.5"/>
</g>
<!-- Node32&#45;&gt;Node28 -->
<g id="edge40" class="edge">
<title>Node32&#45;&gt;Node28</title>
<path fill="none" stroke="midnightblue" d="M1903.12,-220C1916.92,-220 1931.6,-220 1945.69,-220"/>
<polygon fill="midnightblue" stroke="midnightblue" points="1945.83,-223.5 1955.83,-220 1945.83,-216.5 1945.83,-223.5"/>
</g>
<!-- Node33 -->
<g id="node33" class="node">
<title>Node33</title>
<g id="a_node33"><a xlink:href="dm-zap-reclaim_8c.html#abcc671c0e5458059ed2c5a769e7b2342" target="_top" xlink:title=" ">
<polygon fill="none" stroke="black" points="1954,-156 1954,-186 2084,-186 2084,-156 1954,-156"/>
<text text-anchor="start" x="1962" y="-174" font-family="Helvetica,sans-Serif" font-size="10.00">dmzap_assign_zone_to</text>
<text text-anchor="middle" x="2019" y="-163" font-family="Helvetica,sans-Serif" font-size="10.00">_class_0</text>
</a>
</g>
</g>
<!-- Node32&#45;&gt;Node33 -->
<g id="edge37" class="edge">
<title>Node32&#45;&gt;Node33</title>
<path fill="none" stroke="midnightblue" d="M1894.17,-204.9C1912.88,-199.77 1933.96,-194 1953.35,-188.7"/>
<polygon fill="midnightblue" stroke="midnightblue" points="1954.29,-192.07 1963.02,-186.05 1952.45,-185.32 1954.29,-192.07"/>
</g>
<!-- Node35&#45;&gt;Node27 -->
<g id="edge45" class="edge">
<title>Node35&#45;&gt;Node27</title>
<path fill="none" stroke="midnightblue" d="M1887.17,-117.39C1894.42,-114.92 1901.61,-111.84 1908,-108 1927.95,-96.03 1922.63,-79.19 1944,-70 2005.24,-43.66 2041.59,-28.8 2094,-70 2147.09,-111.74 2171.1,-332.22 2177.31,-400.1"/>
<polygon fill="midnightblue" stroke="midnightblue" points="2173.84,-400.63 2178.21,-410.28 2180.82,-400.01 2173.84,-400.63"/>
</g>
<!-- Node36 -->
<g id="node36" class="node">
<title>Node36</title>
<g id="a_node36"><a xlink:href="dm-zap-heap_8c.html#aad1aabfd14cc3bac117e93a678764421" target="_top" xlink:title=" ">
<polygon fill="none" stroke="black" points="1965.5,-117.5 1965.5,-136.5 2072.5,-136.5 2072.5,-117.5 1965.5,-117.5"/>
<text text-anchor="middle" x="2019" y="-124.5" font-family="Helvetica,sans-Serif" font-size="10.00">assert_heap_is_ok</text>
</a>
</g>
</g>
<!-- Node35&#45;&gt;Node36 -->
<g id="edge43" class="edge">
<title>Node35&#45;&gt;Node36</title>
<path fill="none" stroke="midnightblue" d="M1894.17,-127C1913.5,-127 1935.35,-127 1955.26,-127"/>
<polygon fill="midnightblue" stroke="midnightblue" points="1955.46,-130.5 1965.46,-127 1955.46,-123.5 1955.46,-130.5"/>
</g>
<!-- Node37 -->
<g id="node37" class="node">
<title>Node37</title>
<g id="a_node37"><a xlink:href="dm-zap-heap_8c.html#a064a0465c8983944a7d65e1b2ecef375" target="_top" xlink:title=" ">
<polygon fill="none" stroke="black" points="1944,-79.5 1944,-98.5 2094,-98.5 2094,-79.5 1944,-79.5"/>
<text text-anchor="middle" x="2019" y="-86.5" font-family="Helvetica,sans-Serif" font-size="10.00">dmzap_heap_increase_size</text>
</a>
</g>
</g>
<!-- Node35&#45;&gt;Node37 -->
<g id="edge44" class="edge">
<title>Node35&#45;&gt;Node37</title>
<path fill="none" stroke="midnightblue" d="M1884.17,-117.41C1908.22,-112.31 1937.97,-105.99 1963.32,-100.61"/>
<polygon fill="midnightblue" stroke="midnightblue" points="1964.1,-104.02 1973.16,-98.52 1962.65,-97.17 1964.1,-104.02"/>
</g>
<!-- Node38&#45;&gt;Node15 -->
<g id="edge49" class="edge">
<title>Node38&#45;&gt;Node15</title>
<path fill="none" stroke="midnightblue" d="M1057.34,-95.63C1086.84,-108.93 1140.25,-133.02 1173.97,-148.23"/>
<polygon fill="midnightblue" stroke="midnightblue" points="1172.78,-151.53 1183.33,-152.45 1175.66,-145.15 1172.78,-151.53"/>
</g>
<!-- Node38&#45;&gt;Node18 -->
<g id="edge48" class="edge">
<title>Node38&#45;&gt;Node18</title>
<path fill="none" stroke="midnightblue" d="M1089.13,-86.84C1203.73,-88.66 1473.92,-92.96 1599.36,-94.95"/>
<polygon fill="midnightblue" stroke="midnightblue" points="1599.54,-98.45 1609.59,-95.11 1599.65,-91.45 1599.54,-98.45"/>
</g>
<!-- Node42 -->
<g id="node42" class="node">
<title>Node42</title>
<g id="a_node42"><a xlink:href="dm-zap-reclaim_8c.html#aa4936940b0549e555b58e8c6bb54feab" target="_top" xlink:title=" ">
<polygon fill="none" stroke="black" points="1141,-38.5 1141,-57.5 1270,-57.5 1270,-38.5 1141,-38.5"/>
<text text-anchor="middle" x="1205.5" y="-45.5" font-family="Helvetica,sans-Serif" font-size="10.00">dmzap_should_reclaim</text>
</a>
</g>
</g>
<!-- Node41&#45;&gt;Node42 -->
<g id="edge53" class="edge">
<title>Node41&#45;&gt;Node42</title>
<path fill="none" stroke="midnightblue" d="M1105.02,-48C1113.42,-48 1122.03,-48 1130.5,-48"/>
<polygon fill="midnightblue" stroke="midnightblue" points="1130.74,-51.5 1140.74,-48 1130.74,-44.5 1130.74,-51.5"/>
</g>
<!-- Node43 -->
<g id="node43" class="node">
<title>Node43</title>
<g id="a_node43"><a xlink:href="dm-zap-reclaim_8c.html#ad6cede47b4281f8ae6eecbe508d6da7b" target="_top" xlink:title=" ">
<polygon fill="none" stroke="black" points="1309,-38.5 1309,-57.5 1416,-57.5 1416,-38.5 1309,-38.5"/>
<text text-anchor="middle" x="1362.5" y="-45.5" font-family="Helvetica,sans-Serif" font-size="10.00">dmzap_target_idle</text>
</a>
</g>
</g>
<!-- Node42&#45;&gt;Node43 -->
<g id="edge54" class="edge">
<title>Node42&#45;&gt;Node43</title>
<path fill="none" stroke="midnightblue" d="M1270.44,-48C1279.65,-48 1289.12,-48 1298.32,-48"/>
<polygon fill="midnightblue" stroke="midnightblue" points="1298.55,-51.5 1308.55,-48 1298.55,-44.5 1298.55,-51.5"/>
</g>
</g>
</svg>
